<mxfile host="65bd71144e">
    <diagram id="yl8E5fSv0jWC8EZneL4l" name="System architecture overview">
        <mxGraphModel dx="1924" dy="1345" grid="1" gridSize="10" guides="1" tooltips="1" connect="1" arrows="1" fold="1" page="0" pageScale="1" pageWidth="850" pageHeight="1100" math="0" shadow="0">
            <root>
                <mxCell id="0"/>
                <mxCell id="1" parent="0"/>
                <mxCell id="78" value="" style="endArrow=none;dashed=1;html=1;fontSize=11;fillColor=default;jumpStyle=none;" parent="1" edge="1">
                    <mxGeometry width="50" height="50" relative="1" as="geometry">
                        <mxPoint x="-100.00000000000011" y="400.33" as="sourcePoint"/>
                        <mxPoint x="-100" y="220" as="targetPoint"/>
                    </mxGeometry>
                </mxCell>
                <mxCell id="9" value="" style="shape=umlActor;verticalLabelPosition=bottom;verticalAlign=top;html=1;outlineConnect=0;" parent="1" vertex="1">
                    <mxGeometry x="-270" y="-50" width="30" height="60" as="geometry"/>
                </mxCell>
                <mxCell id="-lmOX5kZ7CI9EFdULoYk-58" value="" style="edgeStyle=orthogonalEdgeStyle;jumpStyle=none;html=1;startArrow=classic;startFill=1;fillColor=default;" parent="1" source="18" target="-lmOX5kZ7CI9EFdULoYk-52" edge="1">
                    <mxGeometry relative="1" as="geometry">
                        <Array as="points">
                            <mxPoint x="-10" y="-20"/>
                            <mxPoint x="-10" y="-20"/>
                        </Array>
                    </mxGeometry>
                </mxCell>
                <mxCell id="-lmOX5kZ7CI9EFdULoYk-59" value="Configuration&lt;br&gt;Monitor&lt;br&gt;Alarm" style="edgeLabel;html=1;align=center;verticalAlign=middle;resizable=0;points=[];" parent="-lmOX5kZ7CI9EFdULoYk-58" vertex="1" connectable="0">
                    <mxGeometry x="0.1963" relative="1" as="geometry">
                        <mxPoint x="-57" y="-2" as="offset"/>
                    </mxGeometry>
                </mxCell>
                <mxCell id="18" value="Client web interface" style="rounded=0;whiteSpace=wrap;html=1;fillColor=default;" parent="1" vertex="1">
                    <mxGeometry x="-220" y="-50.06" width="60" height="60" as="geometry"/>
                </mxCell>
                <mxCell id="-lmOX5kZ7CI9EFdULoYk-55" style="edgeStyle=orthogonalEdgeStyle;jumpStyle=none;html=1;entryX=0.5;entryY=0;entryDx=0;entryDy=0;startArrow=classic;startFill=1;fillColor=default;" parent="1" source="-lmOX5kZ7CI9EFdULoYk-52" target="12" edge="1">
                    <mxGeometry relative="1" as="geometry">
                        <Array as="points">
                            <mxPoint x="120" y="-20"/>
                            <mxPoint x="120" y="-80"/>
                            <mxPoint x="275" y="-80"/>
                        </Array>
                    </mxGeometry>
                </mxCell>
                <mxCell id="TeMj2ldiDPqFkT2z4b0s-53" value="Image acquisition" style="edgeLabel;html=1;align=center;verticalAlign=middle;resizable=0;points=[];fontSize=11;" parent="-lmOX5kZ7CI9EFdULoYk-55" vertex="1" connectable="0">
                    <mxGeometry x="-0.0253" y="1" relative="1" as="geometry">
                        <mxPoint x="36" y="1" as="offset"/>
                    </mxGeometry>
                </mxCell>
                <mxCell id="-lmOX5kZ7CI9EFdULoYk-56" value="" style="edgeStyle=orthogonalEdgeStyle;jumpStyle=none;html=1;startArrow=classic;startFill=1;fillColor=default;" parent="1" source="-lmOX5kZ7CI9EFdULoYk-52" edge="1">
                    <mxGeometry relative="1" as="geometry">
                        <mxPoint x="55" y="70" as="targetPoint"/>
                    </mxGeometry>
                </mxCell>
                <mxCell id="-lmOX5kZ7CI9EFdULoYk-60" value="Parameters&lt;br&gt;Results" style="edgeLabel;html=1;align=center;verticalAlign=middle;resizable=0;points=[];" parent="-lmOX5kZ7CI9EFdULoYk-56" vertex="1" connectable="0">
                    <mxGeometry x="0.2124" y="1" relative="1" as="geometry">
                        <mxPoint x="-1" y="-12" as="offset"/>
                    </mxGeometry>
                </mxCell>
                <mxCell id="-lmOX5kZ7CI9EFdULoYk-52" value="Inspection service" style="rounded=0;whiteSpace=wrap;html=1;fillColor=default;" parent="1" vertex="1">
                    <mxGeometry x="20" y="-50" width="70" height="60.06" as="geometry"/>
                </mxCell>
                <mxCell id="10" value="DB" style="shape=cylinder3;whiteSpace=wrap;html=1;boundedLbl=1;backgroundOutline=1;size=15;" parent="1" vertex="1">
                    <mxGeometry x="20" y="80" width="40" height="60" as="geometry"/>
                </mxCell>
                <mxCell id="33" value="" style="group" parent="1" vertex="1" connectable="0">
                    <mxGeometry x="240" y="-50" width="70" height="60" as="geometry"/>
                </mxCell>
                <mxCell id="14" value="" style="group;" parent="33" vertex="1" connectable="0">
                    <mxGeometry x="25" width="20" height="30" as="geometry"/>
                </mxCell>
                <mxCell id="13" value="" style="triangle;whiteSpace=wrap;html=1;rotation=-90;" parent="14" vertex="1">
                    <mxGeometry x="-1.6666666666666665" y="7.058823529411765" width="23.333333333333332" height="21.176470588235297" as="geometry"/>
                </mxCell>
                <mxCell id="12" value="" style="rounded=0;whiteSpace=wrap;html=1;" parent="14" vertex="1">
                    <mxGeometry width="20" height="21.176470588235297" as="geometry"/>
                </mxCell>
                <mxCell id="15" value="PCB" style="shape=parallelogram;perimeter=parallelogramPerimeter;whiteSpace=wrap;html=1;fixedSize=1;" parent="33" vertex="1">
                    <mxGeometry y="40" width="70" height="20" as="geometry"/>
                </mxCell>
                <mxCell id="-lmOX5kZ7CI9EFdULoYk-63" value="" style="endArrow=none;dashed=1;html=1;fillColor=default;jumpStyle=none;" parent="1" edge="1">
                    <mxGeometry width="50" height="50" relative="1" as="geometry">
                        <mxPoint x="10" y="-60" as="sourcePoint"/>
                        <mxPoint x="100" y="-60" as="targetPoint"/>
                    </mxGeometry>
                </mxCell>
                <mxCell id="-lmOX5kZ7CI9EFdULoYk-64" value="" style="endArrow=none;dashed=1;html=1;fillColor=default;jumpStyle=none;" parent="1" edge="1">
                    <mxGeometry width="50" height="50" relative="1" as="geometry">
                        <mxPoint x="10" y="160" as="sourcePoint"/>
                        <mxPoint x="100" y="160" as="targetPoint"/>
                    </mxGeometry>
                </mxCell>
                <mxCell id="-lmOX5kZ7CI9EFdULoYk-65" value="" style="endArrow=none;dashed=1;html=1;fillColor=default;jumpStyle=none;" parent="1" edge="1">
                    <mxGeometry width="50" height="50" relative="1" as="geometry">
                        <mxPoint x="10" y="160" as="sourcePoint"/>
                        <mxPoint x="10" y="-60" as="targetPoint"/>
                    </mxGeometry>
                </mxCell>
                <mxCell id="-lmOX5kZ7CI9EFdULoYk-66" value="" style="endArrow=none;dashed=1;html=1;fillColor=default;jumpStyle=none;" parent="1" edge="1">
                    <mxGeometry width="50" height="50" relative="1" as="geometry">
                        <mxPoint x="100" y="160" as="sourcePoint"/>
                        <mxPoint x="100" y="-60" as="targetPoint"/>
                    </mxGeometry>
                </mxCell>
                <mxCell id="-lmOX5kZ7CI9EFdULoYk-67" value="Inspection server" style="text;html=1;strokeColor=none;fillColor=none;align=center;verticalAlign=middle;whiteSpace=wrap;rounded=0;" parent="1" vertex="1">
                    <mxGeometry x="5" y="-80" width="100" height="20" as="geometry"/>
                </mxCell>
                <mxCell id="TeMj2ldiDPqFkT2z4b0s-61" style="edgeStyle=orthogonalEdgeStyle;jumpStyle=none;html=1;entryX=0;entryY=0.5;entryDx=0;entryDy=0;fontSize=11;startArrow=classic;startFill=1;fillColor=default;" parent="1" source="JOnCRafrT3rsbwJGLXOO-53" target="JOnCRafrT3rsbwJGLXOO-55" edge="1">
                    <mxGeometry relative="1" as="geometry"/>
                </mxCell>
                <mxCell id="JOnCRafrT3rsbwJGLXOO-53" value="Mediator node" style="rounded=0;whiteSpace=wrap;html=1;fillColor=default;" parent="1" vertex="1">
                    <mxGeometry x="240" y="339.33" width="140" height="40.65" as="geometry"/>
                </mxCell>
                <mxCell id="JOnCRafrT3rsbwJGLXOO-55" value="Inspection node" style="rounded=0;whiteSpace=wrap;html=1;fillColor=default;" parent="1" vertex="1">
                    <mxGeometry x="440" y="340" width="189" height="39.98" as="geometry"/>
                </mxCell>
                <mxCell id="TeMj2ldiDPqFkT2z4b0s-69" style="edgeStyle=orthogonalEdgeStyle;jumpStyle=none;html=1;fontSize=11;startArrow=classic;startFill=1;fillColor=default;" parent="1" source="TeMj2ldiDPqFkT2z4b0s-54" target="TeMj2ldiDPqFkT2z4b0s-56" edge="1">
                    <mxGeometry relative="1" as="geometry">
                        <mxPoint x="-100" y="360.32500000000005" as="targetPoint"/>
                    </mxGeometry>
                </mxCell>
                <mxCell id="TeMj2ldiDPqFkT2z4b0s-54" value="Client service" style="rounded=0;whiteSpace=wrap;html=1;fillColor=default;" parent="1" vertex="1">
                    <mxGeometry x="-270" y="340" width="140" height="40.65" as="geometry"/>
                </mxCell>
                <mxCell id="TeMj2ldiDPqFkT2z4b0s-55" value="" style="endArrow=none;dashed=1;html=1;fontSize=11;fillColor=default;jumpStyle=none;" parent="1" edge="1">
                    <mxGeometry width="50" height="50" relative="1" as="geometry">
                        <mxPoint x="-90" y="400" as="sourcePoint"/>
                        <mxPoint x="-90" y="280" as="targetPoint"/>
                    </mxGeometry>
                </mxCell>
                <mxCell id="TeMj2ldiDPqFkT2z4b0s-63" value="" style="edgeStyle=orthogonalEdgeStyle;jumpStyle=none;html=1;fontSize=11;startArrow=classic;startFill=1;fillColor=default;" parent="1" source="TeMj2ldiDPqFkT2z4b0s-56" target="JOnCRafrT3rsbwJGLXOO-53" edge="1">
                    <mxGeometry relative="1" as="geometry"/>
                </mxCell>
                <mxCell id="64" style="edgeStyle=orthogonalEdgeStyle;html=1;startArrow=classic;startFill=1;" parent="1" source="TeMj2ldiDPqFkT2z4b0s-56" target="63" edge="1">
                    <mxGeometry relative="1" as="geometry"/>
                </mxCell>
                <mxCell id="TeMj2ldiDPqFkT2z4b0s-56" value="Web app" style="rounded=0;whiteSpace=wrap;html=1;fillColor=default;" parent="1" vertex="1">
                    <mxGeometry x="-60" y="340" width="140" height="40.65" as="geometry"/>
                </mxCell>
                <mxCell id="80" style="edgeStyle=orthogonalEdgeStyle;html=1;entryX=0;entryY=0.5;entryDx=0;entryDy=0;fontSize=8;startArrow=classic;startFill=1;" parent="1" source="TeMj2ldiDPqFkT2z4b0s-66" target="JOnCRafrT3rsbwJGLXOO-53" edge="1">
                    <mxGeometry relative="1" as="geometry"/>
                </mxCell>
                <mxCell id="TeMj2ldiDPqFkT2z4b0s-66" value="I/O interface" style="rounded=0;whiteSpace=wrap;html=1;fillColor=default;" parent="1" vertex="1">
                    <mxGeometry x="-60" y="289.68" width="140" height="40.65" as="geometry"/>
                </mxCell>
                <mxCell id="TeMj2ldiDPqFkT2z4b0s-70" style="edgeStyle=orthogonalEdgeStyle;jumpStyle=none;html=1;entryX=0;entryY=0.5;entryDx=0;entryDy=0;fontSize=11;startArrow=classic;startFill=1;fillColor=default;" parent="1" source="TeMj2ldiDPqFkT2z4b0s-68" target="TeMj2ldiDPqFkT2z4b0s-66" edge="1">
                    <mxGeometry relative="1" as="geometry"/>
                </mxCell>
                <mxCell id="TeMj2ldiDPqFkT2z4b0s-68" value="PLC / Alerts" style="rounded=0;whiteSpace=wrap;html=1;fillColor=default;" parent="1" vertex="1">
                    <mxGeometry x="-270" y="290" width="140" height="40.65" as="geometry"/>
                </mxCell>
                <mxCell id="TeMj2ldiDPqFkT2z4b0s-75" style="edgeStyle=orthogonalEdgeStyle;jumpStyle=none;html=1;entryX=1;entryY=0.5;entryDx=0;entryDy=0;fontSize=11;startArrow=classic;startFill=1;fillColor=default;" parent="1" source="TeMj2ldiDPqFkT2z4b0s-73" target="JOnCRafrT3rsbwJGLXOO-53" edge="1">
                    <mxGeometry relative="1" as="geometry"/>
                </mxCell>
                <mxCell id="TeMj2ldiDPqFkT2z4b0s-73" value="Image acquisition node" style="rounded=0;whiteSpace=wrap;html=1;fillColor=default;" parent="1" vertex="1">
                    <mxGeometry x="440" y="240.0000000000001" width="189" height="40" as="geometry"/>
                </mxCell>
                <mxCell id="TeMj2ldiDPqFkT2z4b0s-79" style="edgeStyle=orthogonalEdgeStyle;jumpStyle=none;html=1;entryX=1;entryY=0.5;entryDx=0;entryDy=0;fontSize=11;startArrow=classic;startFill=1;fillColor=default;" parent="1" source="TeMj2ldiDPqFkT2z4b0s-78" target="JOnCRafrT3rsbwJGLXOO-53" edge="1">
                    <mxGeometry relative="1" as="geometry"/>
                </mxCell>
                <mxCell id="TeMj2ldiDPqFkT2z4b0s-78" value="Registration node" style="rounded=0;whiteSpace=wrap;html=1;fillColor=default;" parent="1" vertex="1">
                    <mxGeometry x="440" y="289.00000000000006" width="189" height="40" as="geometry"/>
                </mxCell>
                <mxCell id="TeMj2ldiDPqFkT2z4b0s-83" style="edgeStyle=orthogonalEdgeStyle;jumpStyle=none;html=1;entryX=0;entryY=0.5;entryDx=0;entryDy=0;fontSize=11;startArrow=classic;startFill=1;fillColor=default;" parent="1" source="TeMj2ldiDPqFkT2z4b0s-82" target="-lmOX5kZ7CI9EFdULoYk-52" edge="1">
                    <mxGeometry relative="1" as="geometry"/>
                </mxCell>
                <mxCell id="TeMj2ldiDPqFkT2z4b0s-85" value="Control&lt;br&gt;Alarm" style="edgeLabel;html=1;align=center;verticalAlign=middle;resizable=0;points=[];fontSize=11;" parent="TeMj2ldiDPqFkT2z4b0s-83" vertex="1" connectable="0">
                    <mxGeometry x="-0.6857" relative="1" as="geometry">
                        <mxPoint x="11" as="offset"/>
                    </mxGeometry>
                </mxCell>
                <mxCell id="TeMj2ldiDPqFkT2z4b0s-82" value="PLC" style="rounded=0;whiteSpace=wrap;html=1;fillColor=default;" parent="1" vertex="1">
                    <mxGeometry x="-220" y="-120" width="60" height="60" as="geometry"/>
                </mxCell>
                <mxCell id="TeMj2ldiDPqFkT2z4b0s-86" value="Client" style="text;html=1;strokeColor=none;fillColor=none;align=left;verticalAlign=middle;whiteSpace=wrap;rounded=0;fontSize=11;" parent="1" vertex="1">
                    <mxGeometry x="-270" y="250" width="170" height="30" as="geometry"/>
                </mxCell>
                <mxCell id="TeMj2ldiDPqFkT2z4b0s-87" value="Inspection service overview" style="text;html=1;strokeColor=none;fillColor=none;align=left;verticalAlign=middle;whiteSpace=wrap;rounded=0;fontSize=11;" parent="1" vertex="1">
                    <mxGeometry x="-275" y="-180" width="170" height="30" as="geometry"/>
                </mxCell>
                <mxCell id="TeMj2ldiDPqFkT2z4b0s-90" value="Docker" style="rounded=0;whiteSpace=wrap;html=1;fontSize=11;fillColor=default;" parent="1" vertex="1">
                    <mxGeometry x="-180" y="620" width="230" height="30" as="geometry"/>
                </mxCell>
                <mxCell id="TeMj2ldiDPqFkT2z4b0s-91" value="&lt;span style=&quot;font-size: 11px;&quot;&gt;Ubuntu Server 20.04&lt;/span&gt;" style="rounded=0;whiteSpace=wrap;html=1;fontSize=11;fillColor=default;" parent="1" vertex="1">
                    <mxGeometry x="-270" y="650" width="320" height="30" as="geometry"/>
                </mxCell>
                <mxCell id="TeMj2ldiDPqFkT2z4b0s-94" value="MySQL" style="rounded=0;whiteSpace=wrap;html=1;fontSize=11;fillColor=default;" parent="1" vertex="1">
                    <mxGeometry x="-90" y="590" width="70" height="30" as="geometry"/>
                </mxCell>
                <mxCell id="TeMj2ldiDPqFkT2z4b0s-95" value="ROS" style="rounded=0;whiteSpace=wrap;html=1;fontSize=11;fillColor=default;" parent="1" vertex="1">
                    <mxGeometry x="-270" y="620" width="40" height="30" as="geometry"/>
                </mxCell>
                <mxCell id="59" style="edgeStyle=orthogonalEdgeStyle;html=1;entryX=0.75;entryY=1;entryDx=0;entryDy=0;startArrow=classic;startFill=1;" parent="1" source="eo2HIONflX96XUiKf9PE-51" edge="1">
                    <mxGeometry relative="1" as="geometry">
                        <mxPoint x="310" y="379.98" as="targetPoint"/>
                    </mxGeometry>
                </mxCell>
                <mxCell id="81" style="edgeStyle=orthogonalEdgeStyle;html=1;entryX=0.5;entryY=1;entryDx=0;entryDy=0;" edge="1" parent="1" source="eo2HIONflX96XUiKf9PE-51" target="TeMj2ldiDPqFkT2z4b0s-56">
                    <mxGeometry relative="1" as="geometry">
                        <Array as="points">
                            <mxPoint x="310" y="410"/>
                            <mxPoint x="10" y="410"/>
                        </Array>
                    </mxGeometry>
                </mxCell>
                <mxCell id="eo2HIONflX96XUiKf9PE-51" value="FS" style="shape=note;whiteSpace=wrap;html=1;backgroundOutline=1;darkOpacity=0.05;size=20;" parent="1" vertex="1">
                    <mxGeometry x="285" y="440.66" width="50" height="59.34" as="geometry"/>
                </mxCell>
                <mxCell id="55" value="" style="endArrow=none;dashed=1;html=1;fontSize=11;fillColor=default;jumpStyle=none;" parent="1" edge="1">
                    <mxGeometry width="50" height="50" relative="1" as="geometry">
                        <mxPoint x="120" y="400" as="sourcePoint"/>
                        <mxPoint x="120" y="280" as="targetPoint"/>
                    </mxGeometry>
                </mxCell>
                <mxCell id="56" value="Docker" style="text;html=1;strokeColor=none;fillColor=none;align=left;verticalAlign=middle;whiteSpace=wrap;rounded=0;fontSize=11;" parent="1" vertex="1">
                    <mxGeometry x="-85" y="250.00000000000003" width="170" height="30" as="geometry"/>
                </mxCell>
                <mxCell id="57" value="ROS" style="text;html=1;strokeColor=none;fillColor=none;align=left;verticalAlign=middle;whiteSpace=wrap;rounded=0;fontSize=11;" parent="1" vertex="1">
                    <mxGeometry x="130" y="250" width="170" height="30" as="geometry"/>
                </mxCell>
                <mxCell id="61" value="Bridge" style="rounded=1;whiteSpace=wrap;html=1;" parent="1" vertex="1">
                    <mxGeometry x="100" y="349.65" width="50" height="20" as="geometry"/>
                </mxCell>
                <mxCell id="63" value="DB" style="shape=cylinder3;whiteSpace=wrap;html=1;boundedLbl=1;backgroundOutline=1;size=15;" parent="1" vertex="1">
                    <mxGeometry x="-25" y="440" width="70" height="60" as="geometry"/>
                </mxCell>
                <mxCell id="65" value="OAI&lt;br&gt;nodes" style="rounded=0;whiteSpace=wrap;html=1;fontSize=11;fillColor=default;" parent="1" vertex="1">
                    <mxGeometry x="-230" y="620" width="50" height="30" as="geometry"/>
                </mxCell>
                <mxCell id="67" value="IO" style="rounded=0;whiteSpace=wrap;html=1;fontSize=11;fillColor=default;" parent="1" vertex="1">
                    <mxGeometry x="-180" y="590" width="50" height="30" as="geometry"/>
                </mxCell>
                <mxCell id="68" value="Web" style="rounded=0;whiteSpace=wrap;html=1;fontSize=11;fillColor=default;" parent="1" vertex="1">
                    <mxGeometry x="-130" y="590" width="40" height="30" as="geometry"/>
                </mxCell>
                <mxCell id="70" value="GPIO" style="rounded=1;whiteSpace=wrap;html=1;" parent="1" vertex="1">
                    <mxGeometry x="-116" y="299" width="44" height="20" as="geometry"/>
                </mxCell>
                <mxCell id="73" value="HTTP" style="rounded=1;whiteSpace=wrap;html=1;" parent="1" vertex="1">
                    <mxGeometry x="-117" y="349.65" width="44" height="20" as="geometry"/>
                </mxCell>
                <mxCell id="74" value="Raspberry Pi 4" style="rounded=0;whiteSpace=wrap;html=1;" parent="1" vertex="1">
                    <mxGeometry x="-270" y="680" width="320" height="30" as="geometry"/>
                </mxCell>
                <mxCell id="75" value="Adminer" style="rounded=0;whiteSpace=wrap;html=1;fontSize=11;fillColor=default;" parent="1" vertex="1">
                    <mxGeometry x="-20" y="590" width="70" height="30" as="geometry"/>
                </mxCell>
                <mxCell id="76" value="Bridge" style="rounded=1;whiteSpace=wrap;html=1;" parent="1" vertex="1">
                    <mxGeometry x="100" y="300.15999999999997" width="50" height="20" as="geometry"/>
                </mxCell>
                <mxCell id="79" value="Raspbery Pi" style="text;html=1;strokeColor=none;fillColor=none;align=left;verticalAlign=middle;whiteSpace=wrap;rounded=0;fontSize=11;" parent="1" vertex="1">
                    <mxGeometry x="-85" y="220" width="170" height="30" as="geometry"/>
                </mxCell>
                <mxCell id="8-pr1Ah0HpMjDmdw1Q9Z-81" value="FS" style="shape=note;whiteSpace=wrap;html=1;backgroundOutline=1;darkOpacity=0.05;size=20;" vertex="1" parent="1">
                    <mxGeometry x="50" y="90.66" width="40" height="49.34" as="geometry"/>
                </mxCell>
            </root>
        </mxGraphModel>
    </diagram>
    <diagram id="mEzAnb-o6vaqUiyB7Uh4" name="Web application wireframe">
        <mxGraphModel dx="2450" dy="992" grid="1" gridSize="10" guides="1" tooltips="1" connect="1" arrows="1" fold="1" page="1" pageScale="1" pageWidth="850" pageHeight="1100" math="0" shadow="0">
            <root>
                <mxCell id="0"/>
                <mxCell id="1" parent="0"/>
                <mxCell id="a9JeF39u8a13Q8rVM86Y-21" style="edgeStyle=orthogonalEdgeStyle;html=1;" parent="1" source="a9JeF39u8a13Q8rVM86Y-1" target="a9JeF39u8a13Q8rVM86Y-19" edge="1">
                    <mxGeometry relative="1" as="geometry">
                        <Array as="points">
                            <mxPoint x="-90" y="325"/>
                        </Array>
                    </mxGeometry>
                </mxCell>
                <mxCell id="a9JeF39u8a13Q8rVM86Y-22" value="Login" style="edgeLabel;html=1;align=center;verticalAlign=middle;resizable=0;points=[];" parent="a9JeF39u8a13Q8rVM86Y-21" vertex="1" connectable="0">
                    <mxGeometry x="-0.8017" y="3" relative="1" as="geometry">
                        <mxPoint as="offset"/>
                    </mxGeometry>
                </mxCell>
                <mxCell id="a9JeF39u8a13Q8rVM86Y-1" value="" style="rounded=0;whiteSpace=wrap;html=1;sketch=1;curveFitting=1;jiggle=2;" parent="1" vertex="1">
                    <mxGeometry x="40" y="120" width="760" height="410" as="geometry"/>
                </mxCell>
                <mxCell id="a9JeF39u8a13Q8rVM86Y-3" value="" style="rounded=0;whiteSpace=wrap;html=1;sketch=1;curveFitting=1;jiggle=2;" parent="1" vertex="1">
                    <mxGeometry x="40" y="590" width="760" height="410" as="geometry"/>
                </mxCell>
                <mxCell id="a9JeF39u8a13Q8rVM86Y-4" value="Home&amp;nbsp;&lt;span style=&quot;font-weight: 400;&quot;&gt;Main page with navigation and some statistics&lt;/span&gt;" style="text;html=1;strokeColor=none;fillColor=none;align=left;verticalAlign=middle;whiteSpace=wrap;rounded=0;fontStyle=1" parent="1" vertex="1">
                    <mxGeometry x="40" y="560" width="520" height="30" as="geometry"/>
                </mxCell>
                <mxCell id="a9JeF39u8a13Q8rVM86Y-5" value="" style="rounded=0;whiteSpace=wrap;html=1;sketch=1;curveFitting=1;jiggle=2;" parent="1" vertex="1">
                    <mxGeometry x="40" y="1070" width="760" height="410" as="geometry"/>
                </mxCell>
                <mxCell id="a9JeF39u8a13Q8rVM86Y-7" value="&lt;span style=&quot;font-weight: 700; text-align: center;&quot;&gt;Settings&lt;/span&gt;&amp;nbsp;Place to setup the system parameters (not inspection)" style="text;html=1;strokeColor=none;fillColor=none;align=left;verticalAlign=middle;whiteSpace=wrap;rounded=0;" parent="1" vertex="1">
                    <mxGeometry x="40" y="1040" width="520" height="30" as="geometry"/>
                </mxCell>
                <mxCell id="a9JeF39u8a13Q8rVM86Y-11" value="&lt;span style=&quot;font-weight: 700; text-align: center;&quot;&gt;Login&amp;nbsp;&lt;/span&gt;Login page / Lock page&amp;nbsp;" style="text;html=1;align=left;verticalAlign=middle;whiteSpace=wrap;rounded=0;" parent="1" vertex="1">
                    <mxGeometry x="40" y="90" width="520" height="30" as="geometry"/>
                </mxCell>
                <mxCell id="a9JeF39u8a13Q8rVM86Y-12" value="" style="rounded=0;whiteSpace=wrap;html=1;fillStyle=solid;sketch=1;curveFitting=1;jiggle=2;" parent="1" vertex="1">
                    <mxGeometry x="40" y="1550" width="760" height="410" as="geometry"/>
                </mxCell>
                <mxCell id="a9JeF39u8a13Q8rVM86Y-14" value="&lt;span style=&quot;font-weight: 700; text-align: center;&quot;&gt;Devices&amp;nbsp;&lt;/span&gt;Place to setup camera connections" style="text;html=1;strokeColor=none;fillColor=none;align=left;verticalAlign=middle;whiteSpace=wrap;rounded=0;" parent="1" vertex="1">
                    <mxGeometry x="40" y="1520" width="520" height="30" as="geometry"/>
                </mxCell>
                <mxCell id="a9JeF39u8a13Q8rVM86Y-16" value="&lt;span style=&quot;font-weight: 700; text-align: center;&quot;&gt;Inspection&lt;/span&gt;&amp;nbsp;Place to setup inspection flow" style="text;html=1;strokeColor=none;fillColor=none;align=left;verticalAlign=middle;whiteSpace=wrap;rounded=0;" parent="1" vertex="1">
                    <mxGeometry x="40" y="2000" width="520" height="30" as="geometry"/>
                </mxCell>
                <mxCell id="a9JeF39u8a13Q8rVM86Y-17" value="" style="rounded=0;whiteSpace=wrap;html=1;sketch=1;curveFitting=1;jiggle=2;" parent="1" vertex="1">
                    <mxGeometry x="40" y="2030" width="760" height="580" as="geometry"/>
                </mxCell>
                <mxCell id="a9JeF39u8a13Q8rVM86Y-23" style="edgeStyle=orthogonalEdgeStyle;html=1;entryX=0;entryY=0.589;entryDx=0;entryDy=0;entryPerimeter=0;exitX=1;exitY=0.5;exitDx=0;exitDy=0;" parent="1" source="a9JeF39u8a13Q8rVM86Y-19" target="a9JeF39u8a13Q8rVM86Y-1" edge="1">
                    <mxGeometry relative="1" as="geometry"/>
                </mxCell>
                <mxCell id="a9JeF39u8a13Q8rVM86Y-24" value="Logout" style="edgeLabel;html=1;align=center;verticalAlign=middle;resizable=0;points=[];" parent="a9JeF39u8a13Q8rVM86Y-23" vertex="1" connectable="0">
                    <mxGeometry x="0.7566" y="-2" relative="1" as="geometry">
                        <mxPoint as="offset"/>
                    </mxGeometry>
                </mxCell>
                <mxCell id="a9JeF39u8a13Q8rVM86Y-19" value="Protected" style="rounded=0;whiteSpace=wrap;html=1;rotation=-90;" parent="1" vertex="1">
                    <mxGeometry x="-1320" y="1810" width="2490" height="40" as="geometry"/>
                </mxCell>
                <mxCell id="a9JeF39u8a13Q8rVM86Y-25" value="/login" style="text;html=1;strokeColor=none;fillColor=none;align=right;verticalAlign=middle;whiteSpace=wrap;rounded=0;" parent="1" vertex="1">
                    <mxGeometry x="560" y="90" width="240" height="30" as="geometry"/>
                </mxCell>
                <mxCell id="a9JeF39u8a13Q8rVM86Y-28" value="" style="rounded=0;whiteSpace=wrap;html=1;fillColor=#cdeb8b;strokeColor=#36393d;sketch=1;curveFitting=1;jiggle=2;" parent="1" vertex="1">
                    <mxGeometry x="40" y="590" width="760" height="30" as="geometry"/>
                </mxCell>
                <mxCell id="a9JeF39u8a13Q8rVM86Y-38" value="Export" style="text;html=1;strokeColor=none;fillColor=none;align=center;verticalAlign=middle;whiteSpace=wrap;rounded=0;fontStyle=1;sketch=1;curveFitting=1;jiggle=2;" parent="1" vertex="1">
                    <mxGeometry x="300" y="590" width="70" height="30" as="geometry"/>
                </mxCell>
                <mxCell id="a9JeF39u8a13Q8rVM86Y-39" value="Settings" style="text;html=1;strokeColor=none;fillColor=none;align=center;verticalAlign=middle;whiteSpace=wrap;rounded=0;fontStyle=1;sketch=1;curveFitting=1;jiggle=2;" parent="1" vertex="1">
                    <mxGeometry x="220" y="590" width="80" height="30" as="geometry"/>
                </mxCell>
                <mxCell id="a9JeF39u8a13Q8rVM86Y-40" value="Devices" style="text;html=1;strokeColor=none;fillColor=none;align=center;verticalAlign=middle;whiteSpace=wrap;rounded=0;fontStyle=1;sketch=1;curveFitting=1;jiggle=2;" parent="1" vertex="1">
                    <mxGeometry x="150" y="590" width="70" height="30" as="geometry"/>
                </mxCell>
                <mxCell id="a9JeF39u8a13Q8rVM86Y-41" value="Inspection" style="text;html=1;strokeColor=none;fillColor=none;align=center;verticalAlign=middle;whiteSpace=wrap;rounded=0;fontStyle=1;sketch=1;curveFitting=1;jiggle=2;" parent="1" vertex="1">
                    <mxGeometry x="70" y="590" width="80" height="30" as="geometry"/>
                </mxCell>
                <mxCell id="a9JeF39u8a13Q8rVM86Y-43" value="" style="verticalLabelPosition=bottom;verticalAlign=top;html=1;shape=mxgraph.basic.partConcEllipse;startAngle=0.25;endAngle=0.1;arcWidth=0.5;fillColor=#cce5ff;strokeColor=#36393d;sketch=1;curveFitting=1;jiggle=2;" parent="1" vertex="1">
                    <mxGeometry x="45" y="595" width="20" height="20" as="geometry"/>
                </mxCell>
                <mxCell id="a9JeF39u8a13Q8rVM86Y-45" value="/" style="text;html=1;strokeColor=none;fillColor=none;align=right;verticalAlign=middle;whiteSpace=wrap;rounded=0;" parent="1" vertex="1">
                    <mxGeometry x="560" y="560" width="240" height="30" as="geometry"/>
                </mxCell>
                <mxCell id="a9JeF39u8a13Q8rVM86Y-47" value="&amp;nbsp; &amp;nbsp; Inspections is facing some &lt;b&gt;issues&lt;/b&gt;. Act now!&amp;nbsp;" style="rounded=1;whiteSpace=wrap;html=1;arcSize=15;shadow=1;align=left;fillColor=#ffff88;strokeColor=#36393d;sketch=1;curveFitting=1;jiggle=2;" parent="1" vertex="1">
                    <mxGeometry x="170" y="640" width="540" height="30" as="geometry"/>
                </mxCell>
                <mxCell id="a9JeF39u8a13Q8rVM86Y-48" value="" style="ellipse;whiteSpace=wrap;html=1;aspect=fixed;strokeColor=#36393d;fillColor=#ffcccc;shadow=1;sketch=1;curveFitting=1;jiggle=2;" parent="1" vertex="1">
                    <mxGeometry x="740" y="597.5" width="15" height="15" as="geometry"/>
                </mxCell>
                <mxCell id="a9JeF39u8a13Q8rVM86Y-49" value="" style="rounded=1;whiteSpace=wrap;html=1;arcSize=6;shadow=1;sketch=1;curveFitting=1;jiggle=2;" parent="1" vertex="1">
                    <mxGeometry x="170" y="680" width="540" height="100" as="geometry"/>
                </mxCell>
                <mxCell id="a9JeF39u8a13Q8rVM86Y-53" value="" style="whiteSpace=wrap;html=1;shape=mxgraph.basic.roundRectCallout;dx=8.02;dy=4;size=5;boundedLbl=1;rounded=1;shadow=1;sketch=1;curveFitting=1;jiggle=2;" parent="1" vertex="1">
                    <mxGeometry x="770" y="595" width="20" height="20" as="geometry"/>
                </mxCell>
                <mxCell id="a9JeF39u8a13Q8rVM86Y-57" value="" style="endArrow=none;html=1;fontColor=default;fillColor=#fad9d5;strokeColor=#ae4132;strokeWidth=2;sketch=1;curveFitting=1;jiggle=2;" parent="1" edge="1">
                    <mxGeometry width="50" height="50" relative="1" as="geometry">
                        <mxPoint x="235" y="740" as="sourcePoint"/>
                        <mxPoint x="615" y="740" as="targetPoint"/>
                        <Array as="points">
                            <mxPoint x="275" y="730"/>
                            <mxPoint x="335" y="750"/>
                            <mxPoint x="405" y="730"/>
                            <mxPoint x="485" y="720"/>
                            <mxPoint x="575" y="750"/>
                        </Array>
                    </mxGeometry>
                </mxCell>
                <mxCell id="a9JeF39u8a13Q8rVM86Y-58" value="" style="endArrow=classic;html=1;strokeWidth=1;fontColor=default;sketch=1;curveFitting=1;jiggle=2;" parent="1" edge="1">
                    <mxGeometry width="50" height="50" relative="1" as="geometry">
                        <mxPoint x="204.68" y="765" as="sourcePoint"/>
                        <mxPoint x="204.68" y="710" as="targetPoint"/>
                    </mxGeometry>
                </mxCell>
                <mxCell id="a9JeF39u8a13Q8rVM86Y-59" value="" style="endArrow=classic;html=1;strokeWidth=1;fontColor=default;sketch=1;curveFitting=1;jiggle=2;" parent="1" edge="1">
                    <mxGeometry width="50" height="50" relative="1" as="geometry">
                        <mxPoint x="200" y="760.23" as="sourcePoint"/>
                        <mxPoint x="640" y="760" as="targetPoint"/>
                    </mxGeometry>
                </mxCell>
                <mxCell id="a9JeF39u8a13Q8rVM86Y-60" value="" style="endArrow=none;dashed=1;html=1;strokeWidth=1;fontColor=default;fillColor=#bac8d3;strokeColor=#23445d;sketch=1;curveFitting=1;jiggle=2;" parent="1" edge="1">
                    <mxGeometry width="50" height="50" relative="1" as="geometry">
                        <mxPoint x="240" y="739.62" as="sourcePoint"/>
                        <mxPoint x="620" y="739.62" as="targetPoint"/>
                    </mxGeometry>
                </mxCell>
                <mxCell id="a9JeF39u8a13Q8rVM86Y-61" value="Trends" style="text;html=1;strokeColor=none;fillColor=none;align=center;verticalAlign=middle;whiteSpace=wrap;rounded=0;shadow=1;fontColor=default;fontStyle=1;sketch=1;curveFitting=1;jiggle=2;" parent="1" vertex="1">
                    <mxGeometry x="170" y="680" width="60" height="30" as="geometry"/>
                </mxCell>
                <mxCell id="a9JeF39u8a13Q8rVM86Y-62" value="" style="endArrow=none;html=1;fontColor=default;fillColor=#b1ddf0;strokeColor=#10739e;strokeWidth=2;sketch=1;curveFitting=1;jiggle=2;" parent="1" edge="1">
                    <mxGeometry width="50" height="50" relative="1" as="geometry">
                        <mxPoint x="260" y="735" as="sourcePoint"/>
                        <mxPoint x="640" y="735" as="targetPoint"/>
                        <Array as="points">
                            <mxPoint x="300" y="750"/>
                            <mxPoint x="360" y="730"/>
                            <mxPoint x="440" y="740"/>
                            <mxPoint x="510" y="715"/>
                            <mxPoint x="600" y="745"/>
                        </Array>
                    </mxGeometry>
                </mxCell>
                <mxCell id="a9JeF39u8a13Q8rVM86Y-69" value="1" style="ellipse;whiteSpace=wrap;html=1;aspect=fixed;rounded=1;shadow=0;fontStyle=1;fontSize=9;sketch=1;curveFitting=1;jiggle=2;" parent="1" vertex="1">
                    <mxGeometry x="781.5" y="592" width="12.5" height="12.5" as="geometry"/>
                </mxCell>
                <mxCell id="a9JeF39u8a13Q8rVM86Y-70" value="" style="rounded=1;whiteSpace=wrap;html=1;arcSize=3;shadow=1;sketch=1;curveFitting=1;jiggle=2;" parent="1" vertex="1">
                    <mxGeometry x="460" y="790" width="250" height="180" as="geometry"/>
                </mxCell>
                <mxCell id="a9JeF39u8a13Q8rVM86Y-71" value="" style="group;sketch=1;curveFitting=1;jiggle=2;" parent="1" vertex="1" connectable="0">
                    <mxGeometry x="170" y="790" width="280" height="180" as="geometry"/>
                </mxCell>
                <mxCell id="a9JeF39u8a13Q8rVM86Y-52" value="" style="rounded=1;whiteSpace=wrap;html=1;arcSize=3;shadow=1;sketch=1;curveFitting=1;jiggle=2;" parent="a9JeF39u8a13Q8rVM86Y-71" vertex="1">
                    <mxGeometry width="280" height="180" as="geometry"/>
                </mxCell>
                <mxCell id="a9JeF39u8a13Q8rVM86Y-63" value="" style="rounded=0;whiteSpace=wrap;html=1;shadow=0;strokeColor=#36393d;fillColor=#cce5ff;sketch=1;curveFitting=1;jiggle=2;" parent="a9JeF39u8a13Q8rVM86Y-71" vertex="1">
                    <mxGeometry x="30" y="50" width="50" height="120" as="geometry"/>
                </mxCell>
                <mxCell id="a9JeF39u8a13Q8rVM86Y-65" value="" style="rounded=0;whiteSpace=wrap;html=1;shadow=0;strokeColor=#36393d;fillColor=#ffcc99;sketch=1;curveFitting=1;jiggle=2;" parent="a9JeF39u8a13Q8rVM86Y-71" vertex="1">
                    <mxGeometry x="80" y="20" width="50" height="150" as="geometry"/>
                </mxCell>
                <mxCell id="a9JeF39u8a13Q8rVM86Y-66" value="" style="rounded=0;whiteSpace=wrap;html=1;shadow=0;strokeColor=#36393d;fillColor=#cdeb8b;sketch=1;curveFitting=1;jiggle=2;" parent="a9JeF39u8a13Q8rVM86Y-71" vertex="1">
                    <mxGeometry x="130" y="120" width="50" height="50" as="geometry"/>
                </mxCell>
                <mxCell id="a9JeF39u8a13Q8rVM86Y-67" value="" style="rounded=0;whiteSpace=wrap;html=1;shadow=0;strokeColor=#36393d;fillColor=#ffcccc;sketch=1;curveFitting=1;jiggle=2;" parent="a9JeF39u8a13Q8rVM86Y-71" vertex="1">
                    <mxGeometry x="180" y="110" width="50" height="60" as="geometry"/>
                </mxCell>
                <mxCell id="a9JeF39u8a13Q8rVM86Y-68" value="Statistics" style="text;html=1;strokeColor=none;fillColor=none;align=center;verticalAlign=middle;whiteSpace=wrap;rounded=0;shadow=1;fontColor=default;fontStyle=1;sketch=1;curveFitting=1;jiggle=2;" parent="a9JeF39u8a13Q8rVM86Y-71" vertex="1">
                    <mxGeometry width="70" height="30" as="geometry"/>
                </mxCell>
                <mxCell id="a9JeF39u8a13Q8rVM86Y-80" value="Log" style="text;html=1;strokeColor=none;fillColor=none;align=center;verticalAlign=middle;whiteSpace=wrap;rounded=0;shadow=1;fontColor=default;fontStyle=1;sketch=1;curveFitting=1;jiggle=2;" parent="1" vertex="1">
                    <mxGeometry x="460" y="790" width="50" height="30" as="geometry"/>
                </mxCell>
                <mxCell id="a9JeF39u8a13Q8rVM86Y-81" value="PCB123: OK&amp;nbsp; &amp;nbsp; &amp;nbsp; &amp;nbsp; &amp;nbsp; &amp;nbsp; &amp;nbsp; &amp;nbsp; &amp;nbsp; &amp;nbsp; &amp;nbsp; &amp;nbsp; &amp;nbsp; &amp;nbsp; &amp;nbsp; &amp;nbsp; &amp;nbsp; &amp;nbsp; &amp;nbsp; &amp;nbsp; &amp;nbsp; &amp;nbsp; &amp;nbsp; &amp;nbsp; &amp;nbsp; &amp;nbsp;&amp;nbsp;&lt;u style=&quot;border-color: var(--border-color);&quot;&gt;&lt;font style=&quot;border-color: var(--border-color);&quot; color=&quot;#3333ff&quot;&gt;Details&lt;/font&gt;&lt;/u&gt;" style="text;html=1;strokeColor=default;fillColor=none;align=left;verticalAlign=middle;whiteSpace=wrap;rounded=0;shadow=0;fontSize=9;fontColor=default;sketch=1;curveFitting=1;jiggle=2;" parent="1" vertex="1">
                    <mxGeometry x="470" y="820" width="230" height="20" as="geometry"/>
                </mxCell>
                <mxCell id="a9JeF39u8a13Q8rVM86Y-83" value="PCB123: OK&amp;nbsp; &amp;nbsp; &amp;nbsp; &amp;nbsp; &amp;nbsp; &amp;nbsp; &amp;nbsp; &amp;nbsp; &amp;nbsp; &amp;nbsp; &amp;nbsp; &amp;nbsp; &amp;nbsp; &amp;nbsp; &amp;nbsp; &amp;nbsp; &amp;nbsp; &amp;nbsp; &amp;nbsp; &amp;nbsp; &amp;nbsp; &amp;nbsp; &amp;nbsp; &amp;nbsp; &amp;nbsp; &amp;nbsp;&amp;nbsp;&lt;u style=&quot;border-color: var(--border-color);&quot;&gt;&lt;font style=&quot;border-color: var(--border-color);&quot; color=&quot;#3333ff&quot;&gt;Details&lt;/font&gt;&lt;/u&gt;" style="text;html=1;strokeColor=default;fillColor=none;align=left;verticalAlign=middle;whiteSpace=wrap;rounded=0;shadow=0;fontSize=9;fontColor=default;sketch=1;curveFitting=1;jiggle=2;" parent="1" vertex="1">
                    <mxGeometry x="470" y="840" width="230" height="20" as="geometry"/>
                </mxCell>
                <mxCell id="a9JeF39u8a13Q8rVM86Y-84" value="PCB321: NOK (missing component).&amp;nbsp; &amp;nbsp; &amp;nbsp; &amp;nbsp; &amp;nbsp; &amp;nbsp; &amp;nbsp;&amp;nbsp;&lt;u&gt;&lt;font color=&quot;#3333ff&quot;&gt;Details&lt;/font&gt;&lt;/u&gt;" style="text;html=1;strokeColor=#36393d;fillColor=#ffcccc;align=left;verticalAlign=middle;whiteSpace=wrap;rounded=0;shadow=0;fontSize=9;sketch=1;curveFitting=1;jiggle=2;" parent="1" vertex="1">
                    <mxGeometry x="470" y="860" width="230" height="20" as="geometry"/>
                </mxCell>
                <mxCell id="a9JeF39u8a13Q8rVM86Y-85" value="PCB123: OK&amp;nbsp; &amp;nbsp; &amp;nbsp; &amp;nbsp; &amp;nbsp; &amp;nbsp; &amp;nbsp; &amp;nbsp; &amp;nbsp; &amp;nbsp; &amp;nbsp; &amp;nbsp; &amp;nbsp; &amp;nbsp; &amp;nbsp; &amp;nbsp; &amp;nbsp; &amp;nbsp; &amp;nbsp; &amp;nbsp; &amp;nbsp; &amp;nbsp; &amp;nbsp; &amp;nbsp; &amp;nbsp; &amp;nbsp; &lt;u style=&quot;border-color: var(--border-color);&quot;&gt;&lt;font style=&quot;border-color: var(--border-color);&quot; color=&quot;#3333ff&quot;&gt;Details&lt;/font&gt;&lt;/u&gt;" style="text;html=1;strokeColor=default;fillColor=none;align=left;verticalAlign=middle;whiteSpace=wrap;rounded=0;shadow=0;fontSize=9;fontColor=default;sketch=1;curveFitting=1;jiggle=2;" parent="1" vertex="1">
                    <mxGeometry x="470" y="880" width="230" height="20" as="geometry"/>
                </mxCell>
                <mxCell id="a9JeF39u8a13Q8rVM86Y-86" value="" style="text;html=1;strokeColor=default;fillColor=none;align=left;verticalAlign=middle;whiteSpace=wrap;rounded=0;shadow=0;fontSize=9;fontColor=default;sketch=1;curveFitting=1;jiggle=2;" parent="1" vertex="1">
                    <mxGeometry x="470" y="900" width="230" height="20" as="geometry"/>
                </mxCell>
                <mxCell id="a9JeF39u8a13Q8rVM86Y-87" value="" style="text;html=1;strokeColor=default;fillColor=none;align=left;verticalAlign=middle;whiteSpace=wrap;rounded=0;shadow=0;fontSize=9;fontColor=default;sketch=1;curveFitting=1;jiggle=2;" parent="1" vertex="1">
                    <mxGeometry x="470" y="920" width="230" height="20" as="geometry"/>
                </mxCell>
                <mxCell id="a9JeF39u8a13Q8rVM86Y-88" value="" style="text;html=1;strokeColor=default;fillColor=none;align=left;verticalAlign=middle;whiteSpace=wrap;rounded=0;shadow=0;fontSize=9;fontColor=default;sketch=1;curveFitting=1;jiggle=2;" parent="1" vertex="1">
                    <mxGeometry x="470" y="940" width="230" height="20" as="geometry"/>
                </mxCell>
                <mxCell id="a9JeF39u8a13Q8rVM86Y-89" value="" style="rounded=1;whiteSpace=wrap;html=1;shadow=0;fontSize=9;sketch=1;curveFitting=1;jiggle=2;" parent="1" vertex="1">
                    <mxGeometry x="690" y="820" width="10" height="140" as="geometry"/>
                </mxCell>
                <mxCell id="a9JeF39u8a13Q8rVM86Y-90" value="" style="rounded=1;whiteSpace=wrap;html=1;shadow=0;fontSize=9;arcSize=50;fillColor=#eeeeee;strokeColor=#36393d;sketch=1;curveFitting=1;jiggle=2;" parent="1" vertex="1">
                    <mxGeometry x="690" y="848" width="10" height="20" as="geometry"/>
                </mxCell>
                <mxCell id="a9JeF39u8a13Q8rVM86Y-91" value="Online&lt;br&gt;No issues" style="ellipse;whiteSpace=wrap;html=1;aspect=fixed;rounded=1;shadow=0;strokeColor=#36393d;fontSize=9;fillColor=#cdeb8b;" parent="1" vertex="1">
                    <mxGeometry x="849.38" y="690" width="50" height="50" as="geometry"/>
                </mxCell>
                <mxCell id="a9JeF39u8a13Q8rVM86Y-93" value="Online&lt;br&gt;Issues" style="ellipse;whiteSpace=wrap;html=1;aspect=fixed;rounded=1;shadow=0;strokeColor=#36393d;fontSize=9;fillColor=#ffff88;" parent="1" vertex="1">
                    <mxGeometry x="850.63" y="732.5" width="48.75" height="48.75" as="geometry"/>
                </mxCell>
                <mxCell id="a9JeF39u8a13Q8rVM86Y-94" value="Offline" style="ellipse;whiteSpace=wrap;html=1;aspect=fixed;rounded=1;shadow=0;strokeColor=#36393d;fontSize=9;fillColor=#ffcccc;" parent="1" vertex="1">
                    <mxGeometry x="850.63" y="770" width="50" height="50" as="geometry"/>
                </mxCell>
                <mxCell id="a9JeF39u8a13Q8rVM86Y-97" style="edgeStyle=orthogonalEdgeStyle;html=1;entryX=0.5;entryY=1;entryDx=0;entryDy=0;strokeWidth=1;fontSize=9;fontColor=#000000;" parent="1" source="a9JeF39u8a13Q8rVM86Y-95" target="a9JeF39u8a13Q8rVM86Y-48" edge="1">
                    <mxGeometry relative="1" as="geometry"/>
                </mxCell>
                <mxCell id="a9JeF39u8a13Q8rVM86Y-95" value="&lt;b&gt;Inspection statuses&lt;/b&gt;" style="text;html=1;strokeColor=default;fillColor=none;align=center;verticalAlign=middle;whiteSpace=wrap;rounded=0;shadow=0;fontSize=9;fontColor=#000000;dashed=1;" parent="1" vertex="1">
                    <mxGeometry x="830.63" y="651.25" width="88.75" height="30" as="geometry"/>
                </mxCell>
                <mxCell id="a9JeF39u8a13Q8rVM86Y-99" style="edgeStyle=orthogonalEdgeStyle;html=1;entryX=0.576;entryY=0.783;entryDx=0;entryDy=0;entryPerimeter=0;strokeWidth=1;fontSize=9;fontColor=#000000;" parent="1" source="a9JeF39u8a13Q8rVM86Y-98" target="a9JeF39u8a13Q8rVM86Y-53" edge="1">
                    <mxGeometry relative="1" as="geometry"/>
                </mxCell>
                <mxCell id="a9JeF39u8a13Q8rVM86Y-98" value="&lt;b&gt;System notifications&lt;br&gt;&lt;/b&gt;Popup with system messages" style="text;html=1;strokeColor=default;fillColor=none;align=center;verticalAlign=middle;whiteSpace=wrap;rounded=0;shadow=0;fontSize=9;fontColor=#000000;dashed=1;" parent="1" vertex="1">
                    <mxGeometry x="940" y="620" width="110" height="50" as="geometry"/>
                </mxCell>
                <mxCell id="a9JeF39u8a13Q8rVM86Y-102" style="edgeStyle=orthogonalEdgeStyle;html=1;strokeWidth=1;fontSize=9;fontColor=#000000;exitX=0;exitY=0.5;exitDx=0;exitDy=0;" parent="1" source="a9JeF39u8a13Q8rVM86Y-104" target="a9JeF39u8a13Q8rVM86Y-70" edge="1">
                    <mxGeometry relative="1" as="geometry"/>
                </mxCell>
                <mxCell id="a9JeF39u8a13Q8rVM86Y-101" value="&lt;b&gt;Statistics&amp;nbsp; tile&lt;br&gt;&lt;/b&gt;Show inspection error&amp;nbsp; distribution" style="text;html=1;strokeColor=default;fillColor=none;align=center;verticalAlign=middle;whiteSpace=wrap;rounded=0;shadow=0;fontSize=9;fontColor=#000000;dashed=1;" parent="1" vertex="1">
                    <mxGeometry x="830" y="950" width="100" height="50" as="geometry"/>
                </mxCell>
                <mxCell id="a9JeF39u8a13Q8rVM86Y-105" style="edgeStyle=orthogonalEdgeStyle;html=1;strokeWidth=1;fontSize=9;fontColor=#000000;exitX=0.004;exitY=0.787;exitDx=0;exitDy=0;exitPerimeter=0;" parent="1" source="a9JeF39u8a13Q8rVM86Y-101" edge="1">
                    <mxGeometry relative="1" as="geometry">
                        <mxPoint x="310" y="970" as="targetPoint"/>
                        <Array as="points">
                            <mxPoint x="310" y="989"/>
                        </Array>
                    </mxGeometry>
                </mxCell>
                <mxCell id="a9JeF39u8a13Q8rVM86Y-104" value="&lt;b&gt;Log tile&lt;br&gt;&lt;/b&gt;Show processed PCBs with detail links" style="text;html=1;strokeColor=default;fillColor=none;align=center;verticalAlign=middle;whiteSpace=wrap;rounded=0;shadow=0;fontSize=9;fontColor=#000000;dashed=1;" parent="1" vertex="1">
                    <mxGeometry x="830" y="900" width="100" height="40" as="geometry"/>
                </mxCell>
                <mxCell id="a9JeF39u8a13Q8rVM86Y-107" style="edgeStyle=orthogonalEdgeStyle;html=1;entryX=1;entryY=0.5;entryDx=0;entryDy=0;strokeWidth=1;fontSize=9;fontColor=#000000;" parent="1" source="a9JeF39u8a13Q8rVM86Y-106" target="a9JeF39u8a13Q8rVM86Y-49" edge="1">
                    <mxGeometry relative="1" as="geometry"/>
                </mxCell>
                <mxCell id="a9JeF39u8a13Q8rVM86Y-106" value="&lt;b&gt;Trends tile&lt;br&gt;&lt;/b&gt;Show ok/nok history data" style="text;html=1;strokeColor=default;fillColor=none;align=center;verticalAlign=middle;whiteSpace=wrap;rounded=0;shadow=0;fontSize=9;fontColor=#000000;dashed=1;" parent="1" vertex="1">
                    <mxGeometry x="830" y="840" width="100" height="50" as="geometry"/>
                </mxCell>
                <mxCell id="a9JeF39u8a13Q8rVM86Y-108" value="" style="rounded=0;whiteSpace=wrap;html=1;sketch=1;curveFitting=1;jiggle=2;" parent="1" vertex="1">
                    <mxGeometry x="40" y="2670" width="760" height="410" as="geometry"/>
                </mxCell>
                <mxCell id="a9JeF39u8a13Q8rVM86Y-109" value="PCB detail page" style="text;html=1;strokeColor=none;fillColor=none;align=left;verticalAlign=middle;whiteSpace=wrap;rounded=0;" parent="1" vertex="1">
                    <mxGeometry x="40" y="2640" width="520" height="30" as="geometry"/>
                </mxCell>
                <mxCell id="a9JeF39u8a13Q8rVM86Y-110" value="/inspection/item/xxx/details" style="text;html=1;strokeColor=none;fillColor=none;align=right;verticalAlign=middle;whiteSpace=wrap;rounded=0;" parent="1" vertex="1">
                    <mxGeometry x="560" y="2640" width="240" height="30" as="geometry"/>
                </mxCell>
                <mxCell id="a9JeF39u8a13Q8rVM86Y-113" value="" style="rounded=0;whiteSpace=wrap;html=1;fillColor=#cdeb8b;strokeColor=#36393d;sketch=1;curveFitting=1;jiggle=2;" parent="1" vertex="1">
                    <mxGeometry x="40" y="1070" width="760" height="30" as="geometry"/>
                </mxCell>
                <mxCell id="a9JeF39u8a13Q8rVM86Y-117" value="" style="rounded=0;whiteSpace=wrap;html=1;fillColor=#cdeb8b;strokeColor=#36393d;sketch=1;curveFitting=1;jiggle=2;" parent="1" vertex="1">
                    <mxGeometry x="420" y="120" width="200" height="410" as="geometry"/>
                </mxCell>
                <mxCell id="a9JeF39u8a13Q8rVM86Y-114" value="" style="rounded=1;whiteSpace=wrap;html=1;shadow=1;fontSize=9;fillColor=#eeeeee;strokeColor=#36393d;sketch=1;curveFitting=1;jiggle=2;" parent="1" vertex="1">
                    <mxGeometry x="450" y="190" width="70" height="70" as="geometry"/>
                </mxCell>
                <mxCell id="a9JeF39u8a13Q8rVM86Y-115" value="Logout" style="text;html=1;strokeColor=none;fillColor=none;align=center;verticalAlign=middle;whiteSpace=wrap;rounded=0;fontStyle=1;sketch=1;curveFitting=1;jiggle=2;" parent="1" vertex="1">
                    <mxGeometry x="660" y="590" width="70" height="30" as="geometry"/>
                </mxCell>
                <mxCell id="a9JeF39u8a13Q8rVM86Y-118" value="" style="rounded=1;whiteSpace=wrap;html=1;shadow=1;fontSize=9;fillColor=#eeeeee;strokeColor=#36393d;sketch=1;curveFitting=1;jiggle=2;" parent="1" vertex="1">
                    <mxGeometry x="450" y="140" width="70" height="40" as="geometry"/>
                </mxCell>
                <mxCell id="a9JeF39u8a13Q8rVM86Y-119" value="" style="rounded=1;whiteSpace=wrap;html=1;shadow=1;fontSize=9;fillColor=#eeeeee;strokeColor=#36393d;sketch=1;curveFitting=1;jiggle=2;" parent="1" vertex="1">
                    <mxGeometry x="530" y="140" width="30" height="40" as="geometry"/>
                </mxCell>
                <mxCell id="a9JeF39u8a13Q8rVM86Y-120" value="" style="rounded=1;whiteSpace=wrap;html=1;shadow=1;fontSize=9;fillColor=#eeeeee;strokeColor=#36393d;sketch=1;curveFitting=1;jiggle=2;" parent="1" vertex="1">
                    <mxGeometry x="570" y="140" width="30" height="40" as="geometry"/>
                </mxCell>
                <mxCell id="a9JeF39u8a13Q8rVM86Y-121" value="" style="ellipse;whiteSpace=wrap;html=1;aspect=fixed;rounded=1;shadow=1;strokeColor=#36393d;fontSize=9;fillColor=#cce5ff;sketch=1;curveFitting=1;jiggle=2;" parent="1" vertex="1">
                    <mxGeometry x="540" y="195" width="60" height="60" as="geometry"/>
                </mxCell>
                <mxCell id="a9JeF39u8a13Q8rVM86Y-122" value="" style="rounded=1;whiteSpace=wrap;html=1;shadow=1;fontSize=9;fillColor=#ffcc99;strokeColor=#36393d;sketch=1;curveFitting=1;jiggle=2;" parent="1" vertex="1">
                    <mxGeometry x="550" y="300" width="50" height="20" as="geometry"/>
                </mxCell>
                <mxCell id="a9JeF39u8a13Q8rVM86Y-123" value="" style="rounded=1;whiteSpace=wrap;html=1;shadow=1;fontSize=9;fillColor=#ffff88;strokeColor=#36393d;sketch=1;curveFitting=1;jiggle=2;" parent="1" vertex="1">
                    <mxGeometry x="550" y="330" width="50" height="20" as="geometry"/>
                </mxCell>
                <mxCell id="a9JeF39u8a13Q8rVM86Y-124" value="" style="rounded=1;whiteSpace=wrap;html=1;shadow=1;fontSize=9;fillColor=#ffcccc;strokeColor=#36393d;sketch=1;curveFitting=1;jiggle=2;" parent="1" vertex="1">
                    <mxGeometry x="550" y="270" width="50" height="20" as="geometry"/>
                </mxCell>
                <mxCell id="a9JeF39u8a13Q8rVM86Y-127" value="" style="rounded=1;whiteSpace=wrap;html=1;shadow=1;fontSize=9;arcSize=9;sketch=1;curveFitting=1;jiggle=2;" parent="1" vertex="1">
                    <mxGeometry x="322.5" y="222.5" width="195" height="205" as="geometry"/>
                </mxCell>
                <mxCell id="a9JeF39u8a13Q8rVM86Y-128" value="&lt;font style=&quot;&quot;&gt;&lt;b style=&quot;font-size: 20px;&quot;&gt;AO Inspection&lt;/b&gt;&lt;br&gt;&lt;div style=&quot;text-align: left;&quot;&gt;&lt;span style=&quot;font-size: 12px; background-color: initial;&quot;&gt;Powered by ROS&lt;/span&gt;&lt;/div&gt;&lt;/font&gt;" style="text;html=1;strokeColor=none;fillColor=none;align=center;verticalAlign=middle;whiteSpace=wrap;rounded=0;shadow=1;fontSize=9;fontColor=#000000;sketch=1;curveFitting=1;jiggle=2;" parent="1" vertex="1">
                    <mxGeometry x="110" y="282.5" width="165" height="55" as="geometry"/>
                </mxCell>
                <mxCell id="a9JeF39u8a13Q8rVM86Y-129" value="Login" style="text;html=1;strokeColor=none;fillColor=none;align=left;verticalAlign=middle;whiteSpace=wrap;rounded=0;shadow=1;fontSize=12;fontColor=#000000;fontStyle=1;sketch=1;curveFitting=1;jiggle=2;" parent="1" vertex="1">
                    <mxGeometry x="330" y="240" width="60" height="30" as="geometry"/>
                </mxCell>
                <mxCell id="a9JeF39u8a13Q8rVM86Y-130" value="&lt;font color=&quot;#4d4d4d&quot;&gt;&amp;nbsp; &amp;nbsp;Username&lt;/font&gt;" style="text;html=1;strokeColor=default;fillColor=none;align=left;verticalAlign=middle;whiteSpace=wrap;rounded=0;shadow=0;fontSize=12;fontColor=#000000;fontStyle=0;sketch=1;curveFitting=1;jiggle=2;" parent="1" vertex="1">
                    <mxGeometry x="330" y="270" width="180" height="30" as="geometry"/>
                </mxCell>
                <mxCell id="a9JeF39u8a13Q8rVM86Y-131" value="&lt;span style=&quot;font-weight: normal;&quot;&gt;&lt;font color=&quot;#4d4d4d&quot;&gt;&amp;nbsp; &amp;nbsp;Password&lt;/font&gt;&lt;/span&gt;" style="text;html=1;align=left;verticalAlign=middle;whiteSpace=wrap;rounded=1;shadow=0;fontSize=12;fontStyle=1;labelBorderColor=none;strokeColor=default;sketch=1;curveFitting=1;jiggle=2;" parent="1" vertex="1">
                    <mxGeometry x="330" y="310" width="180" height="30" as="geometry"/>
                </mxCell>
                <mxCell id="a9JeF39u8a13Q8rVM86Y-132" value="&lt;font color=&quot;#000000&quot;&gt;Login&lt;/font&gt;" style="rounded=1;whiteSpace=wrap;html=1;shadow=0;labelBorderColor=none;sketch=1;strokeColor=#36393d;fontSize=12;fillColor=#cce5ff;glass=0;curveFitting=1;jiggle=2;" parent="1" vertex="1">
                    <mxGeometry x="360" y="360" width="120" height="30" as="geometry"/>
                </mxCell>
                <mxCell id="a9JeF39u8a13Q8rVM86Y-133" value="&lt;u style=&quot;font-size: 10px;&quot;&gt;Reset password&lt;/u&gt;" style="text;html=1;strokeColor=none;fillColor=none;align=center;verticalAlign=middle;whiteSpace=wrap;rounded=0;shadow=0;glass=0;labelBorderColor=none;fontSize=10;fontColor=#3333FF;sketch=1;curveFitting=1;jiggle=2;" parent="1" vertex="1">
                    <mxGeometry x="360" y="390" width="120" height="22" as="geometry"/>
                </mxCell>
                <mxCell id="a9JeF39u8a13Q8rVM86Y-135" value="&lt;b style=&quot;font-size: 10px;&quot;&gt;Profile&lt;/b&gt;" style="text;html=1;strokeColor=none;fillColor=none;align=left;verticalAlign=middle;whiteSpace=wrap;rounded=0;shadow=1;glass=0;labelBorderColor=none;sketch=1;fontSize=10;fontColor=#000000;" parent="1" vertex="1">
                    <mxGeometry x="170" y="1160" width="540" height="20" as="geometry"/>
                </mxCell>
                <mxCell id="a9JeF39u8a13Q8rVM86Y-136" value="&lt;font style=&quot;font-size: 10px;&quot;&gt;Username&lt;/font&gt;" style="text;html=1;strokeColor=none;fillColor=none;align=left;verticalAlign=middle;whiteSpace=wrap;rounded=0;shadow=1;glass=0;labelBorderColor=none;sketch=1;fontSize=12;fontColor=#000000;" parent="1" vertex="1">
                    <mxGeometry x="170" y="1180" width="540" height="20" as="geometry"/>
                </mxCell>
                <mxCell id="a9JeF39u8a13Q8rVM86Y-137" value="&lt;font style=&quot;font-size: 10px;&quot;&gt;Inspection fail action&lt;/font&gt;" style="text;html=1;strokeColor=none;fillColor=none;align=left;verticalAlign=middle;whiteSpace=wrap;rounded=0;shadow=1;glass=0;labelBorderColor=none;sketch=1;fontSize=12;fontColor=#000000;" parent="1" vertex="1">
                    <mxGeometry x="170" y="1260" width="540" height="20" as="geometry"/>
                </mxCell>
                <mxCell id="a9JeF39u8a13Q8rVM86Y-138" value="&lt;font style=&quot;font-size: 10px;&quot;&gt;&amp;nbsp; &amp;nbsp;Admin&lt;/font&gt;" style="text;html=1;strokeColor=default;fillColor=none;align=left;verticalAlign=middle;whiteSpace=wrap;rounded=0;shadow=1;glass=0;labelBorderColor=none;sketch=1;fontSize=12;fontColor=#000000;" parent="1" vertex="1">
                    <mxGeometry x="170" y="1200" width="540" height="20" as="geometry"/>
                </mxCell>
                <mxCell id="a9JeF39u8a13Q8rVM86Y-139" value="&lt;span style=&quot;font-size: 10px;&quot;&gt;&amp;nbsp; &amp;nbsp; Notify&lt;/span&gt;" style="text;html=1;strokeColor=default;fillColor=none;align=left;verticalAlign=middle;whiteSpace=wrap;rounded=0;shadow=1;glass=0;labelBorderColor=none;sketch=1;fontSize=12;fontColor=#000000;" parent="1" vertex="1">
                    <mxGeometry x="170" y="1280" width="540" height="20" as="geometry"/>
                </mxCell>
                <mxCell id="a9JeF39u8a13Q8rVM86Y-140" value="&lt;b style=&quot;font-size: 10px;&quot;&gt;General&lt;/b&gt;" style="text;html=1;strokeColor=none;fillColor=none;align=left;verticalAlign=middle;whiteSpace=wrap;rounded=0;shadow=1;glass=0;labelBorderColor=none;sketch=1;fontSize=10;fontColor=#000000;" parent="1" vertex="1">
                    <mxGeometry x="170" y="1240" width="540" height="20" as="geometry"/>
                </mxCell>
                <mxCell id="a9JeF39u8a13Q8rVM86Y-141" value="" style="triangle;whiteSpace=wrap;html=1;rounded=1;shadow=1;glass=0;labelBorderColor=none;sketch=1;fontSize=10;rotation=90;fillColor=default;" parent="1" vertex="1">
                    <mxGeometry x="690" y="1285" width="10" height="10" as="geometry"/>
                </mxCell>
                <mxCell id="a9JeF39u8a13Q8rVM86Y-142" value="Save" style="rounded=1;whiteSpace=wrap;html=1;shadow=1;glass=0;labelBorderColor=none;sketch=1;strokeColor=#36393d;fontSize=10;fillColor=#cdeb8b;" parent="1" vertex="1">
                    <mxGeometry x="640" y="1310" width="70" height="20" as="geometry"/>
                </mxCell>
                <mxCell id="a9JeF39u8a13Q8rVM86Y-143" value="Cancel" style="rounded=1;whiteSpace=wrap;html=1;shadow=1;glass=0;labelBorderColor=none;sketch=1;fontSize=10;" parent="1" vertex="1">
                    <mxGeometry x="560" y="1310" width="70" height="20" as="geometry"/>
                </mxCell>
                <mxCell id="a9JeF39u8a13Q8rVM86Y-144" value="&amp;nbsp; &amp;nbsp;Main 1 (127.0.0.1)" style="rounded=1;whiteSpace=wrap;html=1;shadow=1;glass=0;labelBorderColor=none;sketch=1;strokeColor=default;fontSize=10;fontColor=#000000;fillColor=default;arcSize=8;align=left;" parent="1" vertex="1">
                    <mxGeometry x="170" y="1786" width="350" height="30" as="geometry"/>
                </mxCell>
                <mxCell id="a9JeF39u8a13Q8rVM86Y-145" value="" style="rounded=0;whiteSpace=wrap;html=1;fillColor=#cdeb8b;strokeColor=#36393d;sketch=1;curveFitting=1;jiggle=2;" parent="1" vertex="1">
                    <mxGeometry x="40" y="1550" width="760" height="30" as="geometry"/>
                </mxCell>
                <mxCell id="a9JeF39u8a13Q8rVM86Y-146" value="&lt;b style=&quot;font-size: 12px;&quot;&gt;Settings&lt;/b&gt;" style="text;html=1;strokeColor=none;fillColor=none;align=left;verticalAlign=middle;whiteSpace=wrap;rounded=0;shadow=1;glass=0;labelBorderColor=none;sketch=1;fontSize=12;fontColor=#000000;" parent="1" vertex="1">
                    <mxGeometry x="170" y="1120" width="540" height="30" as="geometry"/>
                </mxCell>
                <mxCell id="a9JeF39u8a13Q8rVM86Y-147" value="&lt;b style=&quot;font-size: 12px;&quot;&gt;Devices&lt;/b&gt;" style="text;html=1;strokeColor=none;fillColor=none;align=left;verticalAlign=middle;whiteSpace=wrap;rounded=0;shadow=1;glass=0;labelBorderColor=none;sketch=1;fontSize=12;fontColor=#000000;" parent="1" vertex="1">
                    <mxGeometry x="170" y="1610" width="540" height="30" as="geometry"/>
                </mxCell>
                <mxCell id="a9JeF39u8a13Q8rVM86Y-151" value="" style="rounded=0;whiteSpace=wrap;html=1;shadow=1;glass=0;labelBorderColor=none;sketch=1;strokeColor=#36393d;fontSize=10;fillColor=#ffcccc;" parent="1" vertex="1">
                    <mxGeometry x="440" y="1790" width="30" height="20" as="geometry"/>
                </mxCell>
                <mxCell id="a9JeF39u8a13Q8rVM86Y-152" value="" style="rounded=0;whiteSpace=wrap;html=1;shadow=1;glass=0;labelBorderColor=none;sketch=1;strokeColor=default;fontSize=10;fontColor=#000000;fillColor=default;" parent="1" vertex="1">
                    <mxGeometry x="480" y="1790" width="30" height="20" as="geometry"/>
                </mxCell>
                <mxCell id="a9JeF39u8a13Q8rVM86Y-155" value="&lt;font style=&quot;font-size: 10px;&quot;&gt;Camera name&lt;/font&gt;" style="text;html=1;strokeColor=none;fillColor=none;align=left;verticalAlign=middle;whiteSpace=wrap;rounded=0;shadow=1;glass=0;labelBorderColor=none;sketch=1;fontSize=12;fontColor=#000000;" parent="1" vertex="1">
                    <mxGeometry x="170" y="1640" width="350" height="20" as="geometry"/>
                </mxCell>
                <mxCell id="a9JeF39u8a13Q8rVM86Y-156" value="&lt;span style=&quot;font-size: 10px;&quot;&gt;&amp;nbsp; &amp;nbsp; Main 1&lt;/span&gt;" style="text;html=1;strokeColor=default;fillColor=none;align=left;verticalAlign=middle;whiteSpace=wrap;rounded=0;shadow=1;glass=0;labelBorderColor=none;sketch=1;fontSize=12;fontColor=#000000;" parent="1" vertex="1">
                    <mxGeometry x="170" y="1660" width="350" height="20" as="geometry"/>
                </mxCell>
                <mxCell id="a9JeF39u8a13Q8rVM86Y-157" value="&lt;font style=&quot;font-size: 10px;&quot;&gt;IP address&lt;/font&gt;" style="text;html=1;strokeColor=none;fillColor=none;align=left;verticalAlign=middle;whiteSpace=wrap;rounded=0;shadow=1;glass=0;labelBorderColor=none;sketch=1;fontSize=12;fontColor=#000000;" parent="1" vertex="1">
                    <mxGeometry x="170" y="1680" width="350" height="20" as="geometry"/>
                </mxCell>
                <mxCell id="a9JeF39u8a13Q8rVM86Y-158" value="&lt;font style=&quot;font-size: 10px;&quot;&gt;&amp;nbsp; &amp;nbsp;127.0.0.1&lt;/font&gt;" style="text;html=1;strokeColor=default;fillColor=none;align=left;verticalAlign=middle;whiteSpace=wrap;rounded=0;shadow=1;glass=0;labelBorderColor=none;sketch=1;fontSize=12;fontColor=#000000;" parent="1" vertex="1">
                    <mxGeometry x="170" y="1700" width="350" height="20" as="geometry"/>
                </mxCell>
                <mxCell id="a9JeF39u8a13Q8rVM86Y-159" value="" style="rounded=1;whiteSpace=wrap;html=1;shadow=1;glass=0;labelBorderColor=none;sketch=1;strokeColor=default;fontSize=10;fontColor=#000000;fillColor=default;arcSize=8;align=left;" parent="1" vertex="1">
                    <mxGeometry x="170" y="1826" width="350" height="30" as="geometry"/>
                </mxCell>
                <mxCell id="a9JeF39u8a13Q8rVM86Y-161" value="Save" style="rounded=1;whiteSpace=wrap;html=1;shadow=1;glass=0;labelBorderColor=none;sketch=1;strokeColor=#36393d;fontSize=10;fillColor=#cdeb8b;" parent="1" vertex="1">
                    <mxGeometry x="447.5" y="1730" width="70" height="20" as="geometry"/>
                </mxCell>
                <mxCell id="a9JeF39u8a13Q8rVM86Y-162" value="Cancel" style="rounded=1;whiteSpace=wrap;html=1;shadow=1;glass=0;labelBorderColor=none;sketch=1;fontSize=10;" parent="1" vertex="1">
                    <mxGeometry x="370" y="1730" width="70" height="20" as="geometry"/>
                </mxCell>
                <mxCell id="a9JeF39u8a13Q8rVM86Y-167" value="" style="rounded=1;whiteSpace=wrap;html=1;shadow=1;glass=0;labelBorderColor=none;sketch=1;strokeColor=default;fontSize=10;fontColor=#000000;fillColor=default;arcSize=10;" parent="1" vertex="1">
                    <mxGeometry x="530" y="1660" width="190" height="140" as="geometry"/>
                </mxCell>
                <mxCell id="a9JeF39u8a13Q8rVM86Y-168" value="Picture" style="rounded=1;whiteSpace=wrap;html=1;shadow=1;glass=0;labelBorderColor=none;sketch=1;strokeColor=#36393d;fontSize=10;fillColor=#cce5ff;" parent="1" vertex="1">
                    <mxGeometry x="530" y="1810" width="190" height="30" as="geometry"/>
                </mxCell>
                <mxCell id="a9JeF39u8a13Q8rVM86Y-170" value="" style="rounded=0;whiteSpace=wrap;html=1;shadow=1;glass=0;labelBorderColor=none;sketch=1;strokeColor=#36393d;fontSize=10;fillColor=#cdeb8b;" parent="1" vertex="1">
                    <mxGeometry x="565" y="1700" width="120" height="60" as="geometry"/>
                </mxCell>
                <mxCell id="a9JeF39u8a13Q8rVM86Y-171" value="" style="rounded=0;whiteSpace=wrap;html=1;shadow=1;glass=0;labelBorderColor=none;sketch=1;strokeColor=#36393d;fontSize=10;fillColor=#cdeb8b;" parent="1" vertex="1">
                    <mxGeometry x="575" y="1710" width="35" height="10" as="geometry"/>
                </mxCell>
                <mxCell id="a9JeF39u8a13Q8rVM86Y-172" value="" style="rounded=0;whiteSpace=wrap;html=1;shadow=1;glass=0;labelBorderColor=none;sketch=1;strokeColor=#36393d;fontSize=10;fillColor=#cdeb8b;" parent="1" vertex="1">
                    <mxGeometry x="615" y="1710" width="35" height="40" as="geometry"/>
                </mxCell>
                <mxCell id="a9JeF39u8a13Q8rVM86Y-173" value="" style="rounded=0;whiteSpace=wrap;html=1;shadow=1;glass=0;labelBorderColor=none;sketch=1;strokeColor=#36393d;fontSize=10;fillColor=#cdeb8b;" parent="1" vertex="1">
                    <mxGeometry x="575" y="1725" width="35" height="25" as="geometry"/>
                </mxCell>
                <mxCell id="a9JeF39u8a13Q8rVM86Y-174" value="" style="rounded=0;whiteSpace=wrap;html=1;shadow=1;glass=0;labelBorderColor=none;sketch=1;strokeColor=#36393d;fontSize=10;fillColor=#cdeb8b;" parent="1" vertex="1">
                    <mxGeometry x="655" y="1710" width="20" height="20" as="geometry"/>
                </mxCell>
                <mxCell id="a9JeF39u8a13Q8rVM86Y-175" value="" style="ellipse;whiteSpace=wrap;html=1;aspect=fixed;rounded=1;shadow=1;glass=0;labelBorderColor=none;sketch=1;strokeColor=#36393d;fontSize=10;fillColor=#cce5ff;" parent="1" vertex="1">
                    <mxGeometry x="655" y="1730" width="20" height="20" as="geometry"/>
                </mxCell>
                <mxCell id="a9JeF39u8a13Q8rVM86Y-190" value="" style="rounded=0;whiteSpace=wrap;html=1;fillColor=#cdeb8b;strokeColor=#36393d;sketch=1;curveFitting=1;jiggle=2;" parent="1" vertex="1">
                    <mxGeometry x="40" y="2030" width="760" height="30" as="geometry"/>
                </mxCell>
                <mxCell id="a9JeF39u8a13Q8rVM86Y-192" value="&lt;b&gt;PCB&lt;/b&gt;: PCB123&lt;br&gt;&lt;b&gt;Missing&lt;/b&gt;: YES&lt;br&gt;&lt;b&gt;Text&lt;/b&gt;: OK" style="text;html=1;strokeColor=none;fillColor=none;align=left;verticalAlign=middle;whiteSpace=wrap;rounded=0;" parent="1" vertex="1">
                    <mxGeometry x="540" y="2340" width="192.5" height="50" as="geometry"/>
                </mxCell>
                <mxCell id="a9JeF39u8a13Q8rVM86Y-181" value="" style="rounded=1;whiteSpace=wrap;html=1;shadow=1;glass=0;labelBorderColor=none;sketch=1;strokeColor=default;fontSize=10;fontColor=#000000;fillColor=default;arcSize=10;" parent="1" vertex="1">
                    <mxGeometry x="537.5" y="2145" width="190" height="140" as="geometry"/>
                </mxCell>
                <mxCell id="a9JeF39u8a13Q8rVM86Y-182" value="Test" style="rounded=1;whiteSpace=wrap;html=1;shadow=1;glass=0;labelBorderColor=none;sketch=1;strokeColor=#36393d;fontSize=10;fillColor=#cce5ff;" parent="1" vertex="1">
                    <mxGeometry x="537.5" y="2295" width="190" height="30" as="geometry"/>
                </mxCell>
                <mxCell id="a9JeF39u8a13Q8rVM86Y-183" value="" style="rounded=0;whiteSpace=wrap;html=1;shadow=1;glass=0;labelBorderColor=none;sketch=1;strokeColor=#36393d;fontSize=10;fillColor=#cdeb8b;" parent="1" vertex="1">
                    <mxGeometry x="572.5" y="2185" width="120" height="60" as="geometry"/>
                </mxCell>
                <mxCell id="a9JeF39u8a13Q8rVM86Y-184" value="" style="rounded=0;whiteSpace=wrap;html=1;shadow=1;glass=0;labelBorderColor=none;sketch=1;strokeColor=#36393d;fontSize=10;fillColor=#cdeb8b;" parent="1" vertex="1">
                    <mxGeometry x="582.5" y="2195" width="35" height="10" as="geometry"/>
                </mxCell>
                <mxCell id="a9JeF39u8a13Q8rVM86Y-186" value="" style="rounded=0;whiteSpace=wrap;html=1;shadow=1;glass=0;labelBorderColor=none;sketch=1;strokeColor=#36393d;fontSize=10;fillColor=#cdeb8b;" parent="1" vertex="1">
                    <mxGeometry x="582.5" y="2210" width="35" height="25" as="geometry"/>
                </mxCell>
                <mxCell id="a9JeF39u8a13Q8rVM86Y-187" value="" style="ellipse;whiteSpace=wrap;html=1;aspect=fixed;rounded=1;shadow=1;glass=0;labelBorderColor=none;sketch=1;strokeColor=#36393d;fontSize=10;fillColor=#cce5ff;" parent="1" vertex="1">
                    <mxGeometry x="662.5" y="2215" width="20" height="20" as="geometry"/>
                </mxCell>
                <mxCell id="a9JeF39u8a13Q8rVM86Y-188" value="" style="rounded=0;whiteSpace=wrap;html=1;shadow=1;glass=0;labelBorderColor=none;sketch=1;strokeColor=#36393d;fontSize=10;fillColor=#cdeb8b;" parent="1" vertex="1">
                    <mxGeometry x="662.5" y="2195" width="20" height="20" as="geometry"/>
                </mxCell>
                <mxCell id="a9JeF39u8a13Q8rVM86Y-193" value="" style="rounded=0;whiteSpace=wrap;html=1;shadow=1;glass=0;labelBorderColor=none;sketch=1;fillStyle=solid;fontSize=10;fillColor=none;dashed=1;" parent="1" vertex="1">
                    <mxGeometry x="610" y="2190" width="57.5" height="50" as="geometry"/>
                </mxCell>
                <mxCell id="a9JeF39u8a13Q8rVM86Y-194" value="&lt;span style=&quot;font-size: 10px;&quot;&gt;Profile name&lt;/span&gt;" style="text;html=1;strokeColor=none;fillColor=none;align=left;verticalAlign=middle;whiteSpace=wrap;rounded=0;shadow=1;glass=0;labelBorderColor=none;sketch=1;fontSize=12;fontColor=#000000;" parent="1" vertex="1">
                    <mxGeometry x="160" y="2132.5" width="350" height="20" as="geometry"/>
                </mxCell>
                <mxCell id="a9JeF39u8a13Q8rVM86Y-195" value="&lt;span style=&quot;font-size: 10px;&quot;&gt;&amp;nbsp; &amp;nbsp; Main 1 profile&lt;/span&gt;" style="text;html=1;strokeColor=default;fillColor=none;align=left;verticalAlign=middle;whiteSpace=wrap;rounded=0;shadow=1;glass=0;labelBorderColor=none;sketch=1;fontSize=12;fontColor=#000000;" parent="1" vertex="1">
                    <mxGeometry x="160" y="2152.5" width="350" height="20" as="geometry"/>
                </mxCell>
                <mxCell id="a9JeF39u8a13Q8rVM86Y-196" value="&lt;font style=&quot;font-size: 10px;&quot;&gt;Camera&lt;/font&gt;" style="text;html=1;strokeColor=none;fillColor=none;align=left;verticalAlign=middle;whiteSpace=wrap;rounded=0;shadow=1;glass=0;labelBorderColor=none;sketch=1;fontSize=12;fontColor=#000000;" parent="1" vertex="1">
                    <mxGeometry x="160" y="2172.5" width="350" height="20" as="geometry"/>
                </mxCell>
                <mxCell id="a9JeF39u8a13Q8rVM86Y-197" value="&lt;font style=&quot;font-size: 10px;&quot;&gt;&amp;nbsp; &amp;nbsp; Main 1&lt;/font&gt;" style="text;html=1;strokeColor=default;fillColor=none;align=left;verticalAlign=middle;whiteSpace=wrap;rounded=0;shadow=1;glass=0;labelBorderColor=none;sketch=1;fontSize=12;fontColor=#000000;" parent="1" vertex="1">
                    <mxGeometry x="160" y="2192.5" width="350" height="20" as="geometry"/>
                </mxCell>
                <mxCell id="a9JeF39u8a13Q8rVM86Y-198" value="&lt;b style=&quot;font-size: 12px;&quot;&gt;Inspection&lt;/b&gt;" style="text;html=1;strokeColor=none;fillColor=none;align=left;verticalAlign=middle;whiteSpace=wrap;rounded=0;shadow=1;glass=0;labelBorderColor=none;sketch=1;fontSize=12;fontColor=#000000;" parent="1" vertex="1">
                    <mxGeometry x="160" y="2102.5" width="570" height="30" as="geometry"/>
                </mxCell>
                <mxCell id="a9JeF39u8a13Q8rVM86Y-199" value="Save" style="rounded=1;whiteSpace=wrap;html=1;shadow=1;glass=0;labelBorderColor=none;sketch=1;strokeColor=#36393d;fontSize=10;fillColor=#cdeb8b;" parent="1" vertex="1">
                    <mxGeometry x="440" y="2295" width="70" height="20" as="geometry"/>
                </mxCell>
                <mxCell id="a9JeF39u8a13Q8rVM86Y-200" value="Cancel" style="rounded=1;whiteSpace=wrap;html=1;shadow=1;glass=0;labelBorderColor=none;sketch=1;fontSize=10;" parent="1" vertex="1">
                    <mxGeometry x="364" y="2295" width="70" height="20" as="geometry"/>
                </mxCell>
                <mxCell id="a9JeF39u8a13Q8rVM86Y-201" value="&lt;span style=&quot;font-size: 10px;&quot;&gt;Parameters&lt;/span&gt;" style="text;html=1;strokeColor=none;fillColor=none;align=left;verticalAlign=middle;whiteSpace=wrap;rounded=0;shadow=1;glass=0;labelBorderColor=none;sketch=1;fontSize=12;fontColor=#000000;fontStyle=1" parent="1" vertex="1">
                    <mxGeometry x="160" y="2222.5" width="350" height="20" as="geometry"/>
                </mxCell>
                <mxCell id="a9JeF39u8a13Q8rVM86Y-202" value="&lt;font style=&quot;font-size: 10px;&quot;&gt;Parameter ABC&lt;/font&gt;" style="text;html=1;strokeColor=none;fillColor=none;align=left;verticalAlign=middle;whiteSpace=wrap;rounded=0;shadow=1;glass=0;labelBorderColor=none;sketch=1;fontSize=12;fontColor=#000000;" parent="1" vertex="1">
                    <mxGeometry x="160" y="2242.5" width="350" height="20" as="geometry"/>
                </mxCell>
                <mxCell id="a9JeF39u8a13Q8rVM86Y-203" value="&lt;font style=&quot;font-size: 10px;&quot;&gt;&amp;nbsp; &amp;nbsp; Value&lt;/font&gt;" style="text;html=1;strokeColor=default;fillColor=none;align=left;verticalAlign=middle;whiteSpace=wrap;rounded=0;shadow=1;glass=0;labelBorderColor=none;sketch=1;fontSize=12;fontColor=#000000;" parent="1" vertex="1">
                    <mxGeometry x="160" y="2262.5" width="350" height="20" as="geometry"/>
                </mxCell>
                <mxCell id="a9JeF39u8a13Q8rVM86Y-204" value="&amp;nbsp; &amp;nbsp;Main profile&amp;nbsp;" style="rounded=1;whiteSpace=wrap;html=1;shadow=1;glass=0;labelBorderColor=none;sketch=1;strokeColor=default;fontSize=10;fontColor=#000000;fillColor=default;arcSize=8;align=left;" parent="1" vertex="1">
                    <mxGeometry x="160" y="2520" width="350" height="30" as="geometry"/>
                </mxCell>
                <mxCell id="a9JeF39u8a13Q8rVM86Y-205" value="" style="rounded=0;whiteSpace=wrap;html=1;shadow=1;glass=0;labelBorderColor=none;sketch=1;strokeColor=#36393d;fontSize=10;fillColor=#ffcccc;" parent="1" vertex="1">
                    <mxGeometry x="395" y="2525" width="30" height="20" as="geometry"/>
                </mxCell>
                <mxCell id="a9JeF39u8a13Q8rVM86Y-206" value="" style="rounded=0;whiteSpace=wrap;html=1;shadow=1;glass=0;labelBorderColor=none;sketch=1;strokeColor=default;fontSize=10;fontColor=#000000;fillColor=default;" parent="1" vertex="1">
                    <mxGeometry x="434" y="2525" width="30" height="20" as="geometry"/>
                </mxCell>
                <mxCell id="a9JeF39u8a13Q8rVM86Y-208" value="" style="rounded=0;whiteSpace=wrap;html=1;shadow=1;glass=0;labelBorderColor=none;sketch=1;strokeColor=#36393d;fontSize=10;fillColor=#cce5ff;" parent="1" vertex="1">
                    <mxGeometry x="470" y="2525" width="30" height="20" as="geometry"/>
                </mxCell>
                <mxCell id="a9JeF39u8a13Q8rVM86Y-209" value="&lt;b&gt;Online&amp;nbsp;&lt;/b&gt;" style="text;html=1;strokeColor=none;fillColor=none;align=right;verticalAlign=middle;whiteSpace=wrap;rounded=0;" parent="1" vertex="1">
                    <mxGeometry x="537.5" y="2120" width="172.5" height="22.5" as="geometry"/>
                </mxCell>
                <mxCell id="a9JeF39u8a13Q8rVM86Y-210" value="" style="ellipse;whiteSpace=wrap;html=1;aspect=fixed;rounded=1;shadow=1;glass=0;labelBorderColor=none;sketch=1;fillStyle=solid;strokeColor=#36393d;fontSize=10;fillColor=#cdeb8b;" parent="1" vertex="1">
                    <mxGeometry x="710" y="2127.5" width="7.5" height="7.5" as="geometry"/>
                </mxCell>
                <mxCell id="a9JeF39u8a13Q8rVM86Y-212" value="" style="triangle;whiteSpace=wrap;html=1;rounded=1;shadow=1;glass=0;labelBorderColor=none;sketch=1;fontSize=10;rotation=90;fillColor=default;" parent="1" vertex="1">
                    <mxGeometry x="490" y="2197.5" width="10" height="10" as="geometry"/>
                </mxCell>
                <mxCell id="a9JeF39u8a13Q8rVM86Y-214" value="/inspection/live" style="text;html=1;strokeColor=none;fillColor=none;align=right;verticalAlign=middle;whiteSpace=wrap;rounded=0;" parent="1" vertex="1">
                    <mxGeometry x="560" y="2000" width="240" height="30" as="geometry"/>
                </mxCell>
                <mxCell id="a9JeF39u8a13Q8rVM86Y-216" value="" style="rounded=1;whiteSpace=wrap;html=1;shadow=1;glass=0;labelBorderColor=none;sketch=1;strokeColor=default;fontSize=10;fontColor=#000000;fillColor=default;arcSize=8;align=left;" parent="1" vertex="1">
                    <mxGeometry x="160" y="2560" width="350" height="30" as="geometry"/>
                </mxCell>
                <mxCell id="a9JeF39u8a13Q8rVM86Y-217" value="" style="rounded=1;whiteSpace=wrap;html=1;shadow=1;glass=0;labelBorderColor=none;sketch=1;strokeColor=default;fontSize=10;fontColor=#000000;fillColor=default;arcSize=8;align=left;" parent="1" vertex="1">
                    <mxGeometry x="160" y="2337.5" width="350" height="90" as="geometry"/>
                </mxCell>
                <mxCell id="a9JeF39u8a13Q8rVM86Y-218" value="" style="rounded=1;whiteSpace=wrap;html=1;shadow=1;glass=0;labelBorderColor=none;sketch=1;strokeColor=#36393d;fontSize=10;fillColor=#eeeeee;arcSize=8;align=left;" parent="1" vertex="1">
                    <mxGeometry x="170" y="2347.5" width="90" height="70" as="geometry"/>
                </mxCell>
                <mxCell id="a9JeF39u8a13Q8rVM86Y-219" value="" style="rounded=1;whiteSpace=wrap;html=1;shadow=1;glass=0;labelBorderColor=none;sketch=1;strokeColor=#36393d;fontSize=10;fillColor=#eeeeee;arcSize=8;align=left;" parent="1" vertex="1">
                    <mxGeometry x="275" y="2347.5" width="90" height="70" as="geometry"/>
                </mxCell>
                <mxCell id="a9JeF39u8a13Q8rVM86Y-220" value="" style="rounded=1;whiteSpace=wrap;html=1;shadow=1;glass=0;labelBorderColor=none;sketch=1;strokeColor=#36393d;fontSize=10;fillColor=#eeeeee;arcSize=8;align=left;" parent="1" vertex="1">
                    <mxGeometry x="380" y="2347.5" width="90" height="70" as="geometry"/>
                </mxCell>
                <mxCell id="a9JeF39u8a13Q8rVM86Y-221" value="" style="rounded=1;whiteSpace=wrap;html=1;shadow=1;glass=0;labelBorderColor=none;sketch=1;strokeColor=#36393d;fontSize=10;fillColor=#eeeeee;arcSize=8;align=left;" parent="1" vertex="1">
                    <mxGeometry x="480" y="2347.5" width="30" height="70" as="geometry"/>
                </mxCell>
                <mxCell id="a9JeF39u8a13Q8rVM86Y-222" value="&lt;span style=&quot;font-size: 10px;&quot;&gt;Templates&lt;/span&gt;" style="text;html=1;strokeColor=none;fillColor=none;align=left;verticalAlign=middle;whiteSpace=wrap;rounded=0;shadow=1;glass=0;labelBorderColor=none;sketch=1;fontSize=12;fontColor=#000000;fontStyle=1" parent="1" vertex="1">
                    <mxGeometry x="160" y="2315" width="350" height="20" as="geometry"/>
                </mxCell>
                <mxCell id="a9JeF39u8a13Q8rVM86Y-223" value="" style="rounded=1;whiteSpace=wrap;html=1;shadow=1;glass=0;labelBorderColor=none;sketch=1;strokeColor=#36393d;fontSize=10;fillColor=#eeeeee;arcSize=8;align=left;" parent="1" vertex="1">
                    <mxGeometry x="190" y="2358.75" width="70" height="47.5" as="geometry"/>
                </mxCell>
                <mxCell id="a9JeF39u8a13Q8rVM86Y-224" value="" style="rounded=1;whiteSpace=wrap;html=1;shadow=1;glass=0;labelBorderColor=none;sketch=1;strokeColor=#36393d;fontSize=10;fillColor=#eeeeee;arcSize=8;align=left;" parent="1" vertex="1">
                    <mxGeometry x="275" y="2347.5" width="70" height="47.5" as="geometry"/>
                </mxCell>
                <mxCell id="a9JeF39u8a13Q8rVM86Y-225" value="" style="rounded=1;whiteSpace=wrap;html=1;shadow=1;glass=0;labelBorderColor=none;sketch=1;strokeColor=#36393d;fontSize=10;fillColor=#eeeeee;arcSize=8;align=left;" parent="1" vertex="1">
                    <mxGeometry x="380" y="2370" width="70" height="47.5" as="geometry"/>
                </mxCell>
                <mxCell id="a9JeF39u8a13Q8rVM86Y-226" value="" style="rounded=1;whiteSpace=wrap;html=1;shadow=1;glass=0;labelBorderColor=none;sketch=1;strokeColor=#36393d;fontSize=10;fillColor=#eeeeee;arcSize=8;align=left;" parent="1" vertex="1">
                    <mxGeometry x="480" y="2358.75" width="30" height="47.5" as="geometry"/>
                </mxCell>
                <mxCell id="a9JeF39u8a13Q8rVM86Y-227" value="" style="ellipse;whiteSpace=wrap;html=1;aspect=fixed;rounded=1;shadow=1;glass=0;labelBorderColor=none;sketch=1;fillStyle=solid;strokeColor=default;fontSize=10;fontColor=#000000;fillColor=default;gradientColor=#FF6666;" parent="1" vertex="1">
                    <mxGeometry x="255" y="2343.5" width="10" height="10" as="geometry"/>
                </mxCell>
                <mxCell id="a9JeF39u8a13Q8rVM86Y-228" value="" style="ellipse;whiteSpace=wrap;html=1;aspect=fixed;rounded=1;shadow=1;glass=0;labelBorderColor=none;sketch=1;fillStyle=solid;strokeColor=default;fontSize=10;fontColor=#000000;fillColor=default;gradientColor=#FF6666;" parent="1" vertex="1">
                    <mxGeometry x="360" y="2343.5" width="10" height="10" as="geometry"/>
                </mxCell>
                <mxCell id="a9JeF39u8a13Q8rVM86Y-229" value="" style="ellipse;whiteSpace=wrap;html=1;aspect=fixed;rounded=1;shadow=1;glass=0;labelBorderColor=none;sketch=1;fillStyle=solid;strokeColor=default;fontSize=10;fontColor=#000000;fillColor=default;gradientColor=#FF6666;" parent="1" vertex="1">
                    <mxGeometry x="464" y="2343.5" width="10" height="10" as="geometry"/>
                </mxCell>
                <mxCell id="a9JeF39u8a13Q8rVM86Y-230" value="" style="rounded=1;whiteSpace=wrap;html=1;shadow=1;glass=0;labelBorderColor=none;sketch=1;strokeColor=default;fontSize=10;fontColor=#000000;fillColor=default;arcSize=8;align=left;" parent="1" vertex="1">
                    <mxGeometry x="160" y="2435" width="350" height="50" as="geometry"/>
                </mxCell>
                <mxCell id="a9JeF39u8a13Q8rVM86Y-231" value="&lt;span style=&quot;font-size: 10px;&quot;&gt;Profiles&lt;/span&gt;" style="text;html=1;strokeColor=none;fillColor=none;align=left;verticalAlign=middle;whiteSpace=wrap;rounded=0;shadow=1;glass=0;labelBorderColor=none;sketch=1;fontSize=12;fontColor=#000000;fontStyle=1" parent="1" vertex="1">
                    <mxGeometry x="160" y="2500" width="350" height="20" as="geometry"/>
                </mxCell>
                <mxCell id="a9JeF39u8a13Q8rVM86Y-232" value="" style="ellipse;whiteSpace=wrap;html=1;aspect=fixed;rounded=1;shadow=1;glass=0;labelBorderColor=none;sketch=1;fillStyle=solid;strokeColor=#36393d;fontSize=10;fillColor=#eeeeee;" parent="1" vertex="1">
                    <mxGeometry x="318.75" y="2443.75" width="32.5" height="32.5" as="geometry"/>
                </mxCell>
                <mxCell id="a9JeF39u8a13Q8rVM86Y-238" value="/settings" style="text;html=1;strokeColor=none;fillColor=none;align=right;verticalAlign=middle;whiteSpace=wrap;rounded=0;" parent="1" vertex="1">
                    <mxGeometry x="560" y="1040" width="240" height="30" as="geometry"/>
                </mxCell>
                <mxCell id="a9JeF39u8a13Q8rVM86Y-239" value="/devices" style="text;html=1;strokeColor=none;fillColor=none;align=right;verticalAlign=middle;whiteSpace=wrap;rounded=0;" parent="1" vertex="1">
                    <mxGeometry x="560" y="1520" width="240" height="30" as="geometry"/>
                </mxCell>
                <mxCell id="a9JeF39u8a13Q8rVM86Y-241" value="" style="rounded=1;whiteSpace=wrap;html=1;arcSize=3;shadow=1;sketch=1;curveFitting=1;jiggle=2;" parent="1" vertex="1">
                    <mxGeometry x="540" y="2395" width="190" height="185" as="geometry"/>
                </mxCell>
                <mxCell id="a9JeF39u8a13Q8rVM86Y-242" value="&amp;nbsp;PCB123: OK&amp;nbsp; &amp;nbsp; &amp;nbsp; &amp;nbsp; &amp;nbsp; &amp;nbsp; &amp;nbsp; &amp;nbsp; &amp;nbsp; &amp;nbsp; &amp;nbsp; &amp;nbsp; &amp;nbsp; &amp;nbsp; &amp;nbsp; &amp;nbsp; &amp;nbsp; &amp;nbsp; &amp;nbsp; &amp;nbsp;&amp;nbsp;&lt;u style=&quot;border-color: var(--border-color);&quot;&gt;&lt;font style=&quot;border-color: var(--border-color);&quot; color=&quot;#3333ff&quot;&gt;Details&lt;/font&gt;&lt;/u&gt;" style="text;html=1;strokeColor=default;fillColor=none;align=left;verticalAlign=middle;whiteSpace=wrap;rounded=0;shadow=0;fontSize=9;fontColor=default;sketch=1;curveFitting=1;jiggle=2;" parent="1" vertex="1">
                    <mxGeometry x="540" y="2395" width="190" height="20" as="geometry"/>
                </mxCell>
                <mxCell id="a9JeF39u8a13Q8rVM86Y-243" value="&amp;nbsp;PCB123: OK&amp;nbsp; &amp;nbsp; &amp;nbsp; &amp;nbsp; &amp;nbsp; &amp;nbsp; &amp;nbsp; &amp;nbsp; &amp;nbsp; &amp;nbsp; &amp;nbsp; &amp;nbsp; &amp;nbsp; &amp;nbsp; &amp;nbsp; &amp;nbsp; &amp;nbsp; &amp;nbsp; &amp;nbsp; &amp;nbsp;&amp;nbsp;&lt;u style=&quot;border-color: var(--border-color);&quot;&gt;&lt;font style=&quot;border-color: var(--border-color);&quot; color=&quot;#3333ff&quot;&gt;Details&lt;/font&gt;&lt;/u&gt;" style="text;html=1;strokeColor=default;fillColor=none;align=left;verticalAlign=middle;whiteSpace=wrap;rounded=0;shadow=0;fontSize=9;fontColor=default;sketch=1;curveFitting=1;jiggle=2;" parent="1" vertex="1">
                    <mxGeometry x="540" y="2415" width="190" height="20" as="geometry"/>
                </mxCell>
                <mxCell id="a9JeF39u8a13Q8rVM86Y-244" value="&amp;nbsp;PCB321: NOK (missing component).&amp;nbsp;&amp;nbsp;&lt;u&gt;&lt;font color=&quot;#3333ff&quot;&gt;Details&lt;/font&gt;&lt;/u&gt;" style="text;html=1;strokeColor=#36393d;fillColor=#ffcccc;align=left;verticalAlign=middle;whiteSpace=wrap;rounded=0;shadow=0;fontSize=9;sketch=1;curveFitting=1;jiggle=2;" parent="1" vertex="1">
                    <mxGeometry x="540" y="2435" width="190" height="20" as="geometry"/>
                </mxCell>
                <mxCell id="a9JeF39u8a13Q8rVM86Y-248" value="" style="text;html=1;strokeColor=default;fillColor=none;align=left;verticalAlign=middle;whiteSpace=wrap;rounded=0;shadow=0;fontSize=9;fontColor=default;sketch=1;curveFitting=1;jiggle=2;" parent="1" vertex="1">
                    <mxGeometry x="540" y="2456.25" width="190" height="20" as="geometry"/>
                </mxCell>
            </root>
        </mxGraphModel>
    </diagram>
    <diagram id="oPM_tiPvoAnGdPxfQptD" name="OAI workflows">
        <mxGraphModel dx="1600" dy="992" grid="1" gridSize="10" guides="1" tooltips="1" connect="1" arrows="1" fold="1" page="1" pageScale="1" pageWidth="850" pageHeight="1100" math="0" shadow="0">
            <root>
                <mxCell id="0"/>
                <mxCell id="1" parent="0"/>
            </root>
        </mxGraphModel>
    </diagram>
</mxfile>